%TF.GenerationSoftware,KiCad,Pcbnew,8.0.4*%
%TF.CreationDate,2024-09-07T16:18:19-07:00*%
%TF.ProjectId,upiez,75706965-7a2e-46b6-9963-61645f706362,rev?*%
%TF.SameCoordinates,Original*%
%TF.FileFunction,Soldermask,Top*%
%TF.FilePolarity,Negative*%
%FSLAX46Y46*%
G04 Gerber Fmt 4.6, Leading zero omitted, Abs format (unit mm)*
G04 Created by KiCad (PCBNEW 8.0.4) date 2024-09-07 16:18:19*
%MOMM*%
%LPD*%
G01*
G04 APERTURE LIST*
G04 Aperture macros list*
%AMRoundRect*
0 Rectangle with rounded corners*
0 $1 Rounding radius*
0 $2 $3 $4 $5 $6 $7 $8 $9 X,Y pos of 4 corners*
0 Add a 4 corners polygon primitive as box body*
4,1,4,$2,$3,$4,$5,$6,$7,$8,$9,$2,$3,0*
0 Add four circle primitives for the rounded corners*
1,1,$1+$1,$2,$3*
1,1,$1+$1,$4,$5*
1,1,$1+$1,$6,$7*
1,1,$1+$1,$8,$9*
0 Add four rect primitives between the rounded corners*
20,1,$1+$1,$2,$3,$4,$5,0*
20,1,$1+$1,$4,$5,$6,$7,0*
20,1,$1+$1,$6,$7,$8,$9,0*
20,1,$1+$1,$8,$9,$2,$3,0*%
%AMFreePoly0*
4,1,9,3.862500,-0.866500,0.737500,-0.866500,0.737500,-0.450000,-0.737500,-0.450000,-0.737500,0.450000,0.737500,0.450000,0.737500,0.866500,3.862500,0.866500,3.862500,-0.866500,3.862500,-0.866500,$1*%
G04 Aperture macros list end*
%ADD10RoundRect,0.225000X-0.250000X0.225000X-0.250000X-0.225000X0.250000X-0.225000X0.250000X0.225000X0*%
%ADD11RoundRect,0.250000X0.400000X0.750000X-0.400000X0.750000X-0.400000X-0.750000X0.400000X-0.750000X0*%
%ADD12RoundRect,0.250000X0.750000X0.750000X-0.750000X0.750000X-0.750000X-0.750000X0.750000X-0.750000X0*%
%ADD13RoundRect,0.150000X-0.825000X-0.150000X0.825000X-0.150000X0.825000X0.150000X-0.825000X0.150000X0*%
%ADD14C,2.700000*%
%ADD15R,1.700000X1.700000*%
%ADD16O,1.700000X1.700000*%
%ADD17R,1.500000X1.500000*%
%ADD18RoundRect,0.218750X-0.256250X0.218750X-0.256250X-0.218750X0.256250X-0.218750X0.256250X0.218750X0*%
%ADD19C,1.600000*%
%ADD20R,4.000000X2.000000*%
%ADD21O,3.300000X2.000000*%
%ADD22O,2.000000X3.500000*%
%ADD23RoundRect,0.225000X0.250000X-0.225000X0.250000X0.225000X-0.250000X0.225000X-0.250000X-0.225000X0*%
%ADD24RoundRect,0.218750X0.256250X-0.218750X0.256250X0.218750X-0.256250X0.218750X-0.256250X-0.218750X0*%
%ADD25RoundRect,0.135000X0.185000X-0.135000X0.185000X0.135000X-0.185000X0.135000X-0.185000X-0.135000X0*%
%ADD26RoundRect,0.150000X-0.512500X-0.150000X0.512500X-0.150000X0.512500X0.150000X-0.512500X0.150000X0*%
%ADD27RoundRect,0.225000X0.425000X0.225000X-0.425000X0.225000X-0.425000X-0.225000X0.425000X-0.225000X0*%
%ADD28FreePoly0,180.000000*%
%ADD29RoundRect,0.225000X-0.225000X-0.250000X0.225000X-0.250000X0.225000X0.250000X-0.225000X0.250000X0*%
%ADD30RoundRect,0.150000X0.512500X0.150000X-0.512500X0.150000X-0.512500X-0.150000X0.512500X-0.150000X0*%
%ADD31RoundRect,0.135000X-0.135000X-0.185000X0.135000X-0.185000X0.135000X0.185000X-0.135000X0.185000X0*%
G04 APERTURE END LIST*
D10*
%TO.C,C3*%
X39446200Y-39661800D03*
X39446200Y-41211800D03*
%TD*%
D11*
%TO.C,VR2*%
X43949000Y-44214800D03*
D12*
X42799000Y-40214800D03*
D11*
X41649000Y-44214800D03*
%TD*%
D13*
%TO.C,U1*%
X26887400Y-35306000D03*
X26887400Y-36576000D03*
X26887400Y-37846000D03*
X26887400Y-39116000D03*
X31837400Y-39116000D03*
X31837400Y-37846000D03*
X31837400Y-36576000D03*
X31837400Y-35306000D03*
%TD*%
D14*
%TO.C,S*%
X51054000Y-43180000D03*
%TD*%
%TO.C,S*%
X51054000Y-27940000D03*
%TD*%
D15*
%TO.C,J2*%
X32410400Y-32004000D03*
D16*
X32410400Y-29464000D03*
%TD*%
D17*
%TO.C,VDC*%
X37185600Y-36347400D03*
%TD*%
%TO.C,TP1*%
X46609000Y-44450000D03*
%TD*%
D14*
%TO.C,S*%
X27940000Y-27940000D03*
%TD*%
%TO.C,S*%
X27940000Y-43180000D03*
%TD*%
D18*
%TO.C,D2*%
X52578000Y-37835700D03*
X52578000Y-39410700D03*
%TD*%
D19*
%TO.C,J1*%
X40259000Y-28592000D03*
D20*
X40259000Y-37592000D03*
D21*
X40259000Y-31592000D03*
D22*
X44759000Y-30592000D03*
X35759000Y-30592000D03*
%TD*%
D23*
%TO.C,C2*%
X52171600Y-33185400D03*
X52171600Y-31635400D03*
%TD*%
D24*
%TO.C,D1*%
X52578000Y-36235700D03*
X52578000Y-34660700D03*
%TD*%
D25*
%TO.C,R2*%
X50876200Y-38320400D03*
X50876200Y-37300400D03*
%TD*%
D10*
%TO.C,C4*%
X32334200Y-40677800D03*
X32334200Y-42227800D03*
%TD*%
D26*
%TO.C,Q1*%
X26599300Y-31750000D03*
X26599300Y-33650000D03*
X28874300Y-32700000D03*
%TD*%
D27*
%TO.C,U2*%
X50468800Y-35843900D03*
D28*
X50381300Y-34343900D03*
D27*
X50468800Y-32843900D03*
%TD*%
D29*
%TO.C,C1*%
X47027800Y-31038800D03*
X48577800Y-31038800D03*
%TD*%
D17*
%TO.C,GND*%
X37846000Y-27178000D03*
%TD*%
D11*
%TO.C,VR1*%
X37218000Y-44214800D03*
D12*
X36068000Y-40214800D03*
D11*
X34918000Y-44214800D03*
%TD*%
D30*
%TO.C,Q2*%
X49448300Y-39522400D03*
X49448300Y-37622400D03*
X47173300Y-38572400D03*
%TD*%
D31*
%TO.C,R1*%
X45895800Y-40919400D03*
X46915800Y-40919400D03*
%TD*%
M02*
