%TF.GenerationSoftware,KiCad,Pcbnew,8.0.4*%
%TF.CreationDate,2024-09-07T16:18:19-07:00*%
%TF.ProjectId,upiez,75706965-7a2e-46b6-9963-61645f706362,rev?*%
%TF.SameCoordinates,Original*%
%TF.FileFunction,Copper,L1,Top*%
%TF.FilePolarity,Positive*%
%FSLAX46Y46*%
G04 Gerber Fmt 4.6, Leading zero omitted, Abs format (unit mm)*
G04 Created by KiCad (PCBNEW 8.0.4) date 2024-09-07 16:18:19*
%MOMM*%
%LPD*%
G01*
G04 APERTURE LIST*
G04 Aperture macros list*
%AMRoundRect*
0 Rectangle with rounded corners*
0 $1 Rounding radius*
0 $2 $3 $4 $5 $6 $7 $8 $9 X,Y pos of 4 corners*
0 Add a 4 corners polygon primitive as box body*
4,1,4,$2,$3,$4,$5,$6,$7,$8,$9,$2,$3,0*
0 Add four circle primitives for the rounded corners*
1,1,$1+$1,$2,$3*
1,1,$1+$1,$4,$5*
1,1,$1+$1,$6,$7*
1,1,$1+$1,$8,$9*
0 Add four rect primitives between the rounded corners*
20,1,$1+$1,$2,$3,$4,$5,0*
20,1,$1+$1,$4,$5,$6,$7,0*
20,1,$1+$1,$6,$7,$8,$9,0*
20,1,$1+$1,$8,$9,$2,$3,0*%
%AMFreePoly0*
4,1,9,3.862500,-0.866500,0.737500,-0.866500,0.737500,-0.450000,-0.737500,-0.450000,-0.737500,0.450000,0.737500,0.450000,0.737500,0.866500,3.862500,0.866500,3.862500,-0.866500,3.862500,-0.866500,$1*%
G04 Aperture macros list end*
%TA.AperFunction,SMDPad,CuDef*%
%ADD10RoundRect,0.225000X-0.250000X0.225000X-0.250000X-0.225000X0.250000X-0.225000X0.250000X0.225000X0*%
%TD*%
%TA.AperFunction,SMDPad,CuDef*%
%ADD11RoundRect,0.250000X0.400000X0.750000X-0.400000X0.750000X-0.400000X-0.750000X0.400000X-0.750000X0*%
%TD*%
%TA.AperFunction,SMDPad,CuDef*%
%ADD12RoundRect,0.250000X0.750000X0.750000X-0.750000X0.750000X-0.750000X-0.750000X0.750000X-0.750000X0*%
%TD*%
%TA.AperFunction,SMDPad,CuDef*%
%ADD13RoundRect,0.150000X-0.825000X-0.150000X0.825000X-0.150000X0.825000X0.150000X-0.825000X0.150000X0*%
%TD*%
%TA.AperFunction,ComponentPad*%
%ADD14R,1.700000X1.700000*%
%TD*%
%TA.AperFunction,ComponentPad*%
%ADD15O,1.700000X1.700000*%
%TD*%
%TA.AperFunction,SMDPad,CuDef*%
%ADD16R,1.500000X1.500000*%
%TD*%
%TA.AperFunction,SMDPad,CuDef*%
%ADD17RoundRect,0.218750X-0.256250X0.218750X-0.256250X-0.218750X0.256250X-0.218750X0.256250X0.218750X0*%
%TD*%
%TA.AperFunction,ComponentPad*%
%ADD18R,4.000000X2.000000*%
%TD*%
%TA.AperFunction,ComponentPad*%
%ADD19O,3.300000X2.000000*%
%TD*%
%TA.AperFunction,ComponentPad*%
%ADD20O,2.000000X3.500000*%
%TD*%
%TA.AperFunction,SMDPad,CuDef*%
%ADD21RoundRect,0.225000X0.250000X-0.225000X0.250000X0.225000X-0.250000X0.225000X-0.250000X-0.225000X0*%
%TD*%
%TA.AperFunction,SMDPad,CuDef*%
%ADD22RoundRect,0.218750X0.256250X-0.218750X0.256250X0.218750X-0.256250X0.218750X-0.256250X-0.218750X0*%
%TD*%
%TA.AperFunction,SMDPad,CuDef*%
%ADD23RoundRect,0.135000X0.185000X-0.135000X0.185000X0.135000X-0.185000X0.135000X-0.185000X-0.135000X0*%
%TD*%
%TA.AperFunction,SMDPad,CuDef*%
%ADD24RoundRect,0.150000X-0.512500X-0.150000X0.512500X-0.150000X0.512500X0.150000X-0.512500X0.150000X0*%
%TD*%
%TA.AperFunction,SMDPad,CuDef*%
%ADD25RoundRect,0.225000X0.425000X0.225000X-0.425000X0.225000X-0.425000X-0.225000X0.425000X-0.225000X0*%
%TD*%
%TA.AperFunction,SMDPad,CuDef*%
%ADD26FreePoly0,180.000000*%
%TD*%
%TA.AperFunction,SMDPad,CuDef*%
%ADD27RoundRect,0.225000X-0.225000X-0.250000X0.225000X-0.250000X0.225000X0.250000X-0.225000X0.250000X0*%
%TD*%
%TA.AperFunction,SMDPad,CuDef*%
%ADD28RoundRect,0.150000X0.512500X0.150000X-0.512500X0.150000X-0.512500X-0.150000X0.512500X-0.150000X0*%
%TD*%
%TA.AperFunction,SMDPad,CuDef*%
%ADD29RoundRect,0.135000X-0.135000X-0.185000X0.135000X-0.185000X0.135000X0.185000X-0.135000X0.185000X0*%
%TD*%
%TA.AperFunction,ViaPad*%
%ADD30C,0.600000*%
%TD*%
%TA.AperFunction,Conductor*%
%ADD31C,0.406400*%
%TD*%
%TA.AperFunction,Conductor*%
%ADD32C,2.000000*%
%TD*%
%TA.AperFunction,Conductor*%
%ADD33C,0.508000*%
%TD*%
%TA.AperFunction,Conductor*%
%ADD34C,1.220000*%
%TD*%
%TA.AperFunction,Conductor*%
%ADD35C,0.762000*%
%TD*%
G04 APERTURE END LIST*
D10*
%TO.P,C3,1*%
%TO.N,/RC1*%
X39446200Y-39661800D03*
%TO.P,C3,2*%
%TO.N,GND*%
X39446200Y-41211800D03*
%TD*%
D11*
%TO.P,VR2,1,1*%
%TO.N,/RC1*%
X43949000Y-44214800D03*
D12*
%TO.P,VR2,2,2*%
%TO.N,/3.3V*%
X42799000Y-40214800D03*
D11*
%TO.P,VR2,3,3*%
%TO.N,/In1*%
X41649000Y-44214800D03*
%TD*%
D13*
%TO.P,U1,1,GND*%
%TO.N,GND*%
X26887400Y-35306000D03*
%TO.P,U1,2,TR*%
%TO.N,/In1*%
X26887400Y-36576000D03*
%TO.P,U1,3,Q*%
%TO.N,/O1*%
X26887400Y-37846000D03*
%TO.P,U1,4,R*%
%TO.N,/3.3V*%
X26887400Y-39116000D03*
%TO.P,U1,5,CV*%
%TO.N,/CV1*%
X31837400Y-39116000D03*
%TO.P,U1,6,THR*%
%TO.N,/RC1*%
X31837400Y-37846000D03*
%TO.P,U1,7,DIS*%
X31837400Y-36576000D03*
%TO.P,U1,8,VCC*%
%TO.N,/3.3V*%
X31837400Y-35306000D03*
%TD*%
D14*
%TO.P,J2,1,Pin_1*%
%TO.N,GND*%
X32410400Y-32004000D03*
D15*
%TO.P,J2,2,Pin_2*%
%TO.N,/Piezo1*%
X32410400Y-29464000D03*
%TD*%
D16*
%TO.P,VDC,1*%
%TO.N,/VDC*%
X37185600Y-36347400D03*
%TD*%
%TO.P,TP1,1*%
%TO.N,/In1*%
X46609000Y-44450000D03*
%TD*%
D17*
%TO.P,D2,1,K*%
%TO.N,Net-(D2-K)*%
X52578000Y-37835700D03*
%TO.P,D2,2,A*%
%TO.N,/O1*%
X52578000Y-39410700D03*
%TD*%
D18*
%TO.P,J1,1*%
%TO.N,/VDC*%
X40259000Y-37592000D03*
D19*
%TO.P,J1,2*%
%TO.N,/L1-*%
X40259000Y-31592000D03*
D20*
%TO.P,J1,MP,MountPin*%
%TO.N,GND*%
X44759000Y-30592000D03*
X35759000Y-30592000D03*
%TD*%
D21*
%TO.P,C2,1*%
%TO.N,/3.3V*%
X52171600Y-33185400D03*
%TO.P,C2,2*%
%TO.N,GND*%
X52171600Y-31635400D03*
%TD*%
D22*
%TO.P,D1,1,K*%
%TO.N,GND*%
X52578000Y-36235700D03*
%TO.P,D1,2,A*%
%TO.N,Net-(D1-A)*%
X52578000Y-34660700D03*
%TD*%
D23*
%TO.P,R2,1*%
%TO.N,Net-(D2-K)*%
X50876200Y-38320400D03*
%TO.P,R2,2*%
%TO.N,GND*%
X50876200Y-37300400D03*
%TD*%
D10*
%TO.P,C4,1*%
%TO.N,/CV1*%
X32334200Y-40677800D03*
%TO.P,C4,2*%
%TO.N,GND*%
X32334200Y-42227800D03*
%TD*%
D24*
%TO.P,Q1,1,G*%
%TO.N,/P1*%
X26599300Y-31750000D03*
%TO.P,Q1,2,S*%
%TO.N,GND*%
X26599300Y-33650000D03*
%TO.P,Q1,3,D*%
%TO.N,/In1*%
X28874300Y-32700000D03*
%TD*%
D25*
%TO.P,U2,1,GND*%
%TO.N,GND*%
X50468800Y-35843900D03*
D26*
%TO.P,U2,2,IN*%
%TO.N,/VDC*%
X50381300Y-34343900D03*
D25*
%TO.P,U2,3,OUT*%
%TO.N,/3.3V*%
X50468800Y-32843900D03*
%TD*%
D27*
%TO.P,C1,1*%
%TO.N,/VDC*%
X47027800Y-31038800D03*
%TO.P,C1,2*%
%TO.N,GND*%
X48577800Y-31038800D03*
%TD*%
D16*
%TO.P,GND,1*%
%TO.N,GND*%
X37846000Y-27178000D03*
%TD*%
D11*
%TO.P,VR1,1,1*%
%TO.N,GND*%
X37218000Y-44214800D03*
D12*
%TO.P,VR1,2,2*%
%TO.N,/P1*%
X36068000Y-40214800D03*
D11*
%TO.P,VR1,3,3*%
%TO.N,/Piezo1*%
X34918000Y-44214800D03*
%TD*%
D28*
%TO.P,Q2,1,G*%
%TO.N,/O1*%
X49448300Y-39522400D03*
%TO.P,Q2,2,S*%
%TO.N,GND*%
X49448300Y-37622400D03*
%TO.P,Q2,3,D*%
%TO.N,/L1-*%
X47173300Y-38572400D03*
%TD*%
D29*
%TO.P,R1,1*%
%TO.N,/3.3V*%
X45895800Y-40919400D03*
%TO.P,R1,2*%
%TO.N,Net-(D1-A)*%
X46915800Y-40919400D03*
%TD*%
D30*
%TO.N,GND*%
X50800000Y-30353000D03*
X37642800Y-40944800D03*
X49911000Y-30353000D03*
X46990000Y-36210200D03*
X37642800Y-41681400D03*
X32410400Y-34163000D03*
X49276000Y-36210200D03*
X48514000Y-36210200D03*
X50800000Y-31242000D03*
X33807400Y-39954200D03*
X47752000Y-36210200D03*
X49911000Y-31242000D03*
%TO.N,/O1*%
X28194000Y-37846000D03*
X51079400Y-39522400D03*
%TO.N,/In1*%
X39166800Y-44704000D03*
X48006000Y-44704000D03*
X28194000Y-36576000D03*
X28874300Y-31577700D03*
%TO.N,/Piezo1*%
X35052000Y-42587800D03*
%TO.N,/P1*%
X28016200Y-31724600D03*
X33655000Y-42621200D03*
%TO.N,Net-(D1-A)*%
X51790600Y-35433000D03*
X47955200Y-40919400D03*
%TO.N,/3.3V*%
X33274000Y-35306000D03*
X49174400Y-32359600D03*
X40665400Y-39344600D03*
%TO.N,/VDC*%
X47698600Y-32273200D03*
%TD*%
D31*
%TO.N,GND*%
X33807400Y-39954200D02*
X33807400Y-41021000D01*
X37642800Y-41681400D02*
X37642800Y-43790000D01*
X33807400Y-41021000D02*
X32537400Y-42291000D01*
D32*
%TO.N,/L1-*%
X46065400Y-38572400D02*
X40259000Y-32766000D01*
X47173300Y-38572400D02*
X46065400Y-38572400D01*
X40259000Y-32766000D02*
X40259000Y-31592000D01*
D31*
%TO.N,/O1*%
X26887400Y-37846000D02*
X28194000Y-37846000D01*
X49448300Y-39522400D02*
X52466300Y-39522400D01*
%TO.N,/RC1*%
X34859892Y-36576000D02*
X31837400Y-36576000D01*
X39446200Y-39661800D02*
X37945692Y-39661800D01*
X43949000Y-44164600D02*
X39446200Y-39661800D01*
X31837400Y-36576000D02*
X31837400Y-37846000D01*
X37945692Y-39661800D02*
X34859892Y-36576000D01*
%TO.N,/CV1*%
X32334200Y-39612800D02*
X31837400Y-39116000D01*
X32334200Y-40677800D02*
X32334200Y-39612800D01*
%TO.N,/In1*%
X28874300Y-31577700D02*
X28874300Y-32700000D01*
X48006000Y-44704000D02*
X46863000Y-44704000D01*
X41159800Y-44704000D02*
X41649000Y-44214800D01*
X26887400Y-36576000D02*
X28194000Y-36576000D01*
X39166800Y-44704000D02*
X41159800Y-44704000D01*
%TO.N,/Piezo1*%
X35045000Y-42594800D02*
X35045000Y-44214800D01*
X35052000Y-42587800D02*
X35045000Y-42594800D01*
%TO.N,/P1*%
X28016200Y-31724600D02*
X27990800Y-31750000D01*
X33655000Y-42621200D02*
X35763200Y-40513000D01*
X27990800Y-31750000D02*
X26599300Y-31750000D01*
%TO.N,Net-(D1-A)*%
X47955200Y-40919400D02*
X46915800Y-40919400D01*
X51790600Y-35433000D02*
X52562900Y-34660700D01*
%TO.N,/3.3V*%
X45895800Y-40919400D02*
X43503600Y-40919400D01*
D33*
X49658700Y-32843900D02*
X50468800Y-32843900D01*
X51321000Y-33185400D02*
X52171600Y-33185400D01*
D31*
X31837400Y-35306000D02*
X30988000Y-35306000D01*
X29210000Y-37084000D02*
X29210000Y-37846000D01*
X30988000Y-35306000D02*
X29210000Y-37084000D01*
X29210000Y-37846000D02*
X27940000Y-39116000D01*
D33*
X33274000Y-35306000D02*
X31837400Y-35306000D01*
D31*
X40665400Y-39344600D02*
X41725600Y-39344600D01*
X41725600Y-39344600D02*
X42799000Y-40418000D01*
X27940000Y-39116000D02*
X26670000Y-39116000D01*
D33*
X49174400Y-32359600D02*
X49658700Y-32843900D01*
X50468800Y-32843900D02*
X50979500Y-32843900D01*
X50979500Y-32843900D02*
X51321000Y-33185400D01*
D31*
%TO.N,Net-(D2-K)*%
X51915500Y-38320400D02*
X52578000Y-37657900D01*
X50876200Y-38320400D02*
X51915500Y-38320400D01*
D34*
%TO.N,/VDC*%
X40259000Y-37592000D02*
X38430200Y-37592000D01*
X38430200Y-37592000D02*
X37185600Y-36347400D01*
D35*
X47698600Y-32273200D02*
X47027800Y-31602400D01*
X47701200Y-32275800D02*
X47701200Y-33516500D01*
X47027800Y-31602400D02*
X47027800Y-31038800D01*
%TD*%
%TA.AperFunction,Conductor*%
%TO.N,GND*%
G36*
X37650531Y-40201184D02*
G01*
X37650983Y-40200095D01*
X37656698Y-40202462D01*
X37656701Y-40202464D01*
X37689221Y-40215934D01*
X37767732Y-40248455D01*
X37847035Y-40264228D01*
X37885596Y-40271899D01*
X37885599Y-40271899D01*
X37885602Y-40271900D01*
X38005782Y-40271900D01*
X38635468Y-40271900D01*
X38703589Y-40291902D01*
X38724563Y-40308805D01*
X38805820Y-40390062D01*
X38805824Y-40390065D01*
X38805826Y-40390067D01*
X38943248Y-40471338D01*
X39096563Y-40515880D01*
X39132393Y-40518700D01*
X39388097Y-40518699D01*
X39456217Y-40538701D01*
X39477192Y-40555604D01*
X40743493Y-41821905D01*
X40777519Y-41884217D01*
X40772454Y-41955032D01*
X40729907Y-42011868D01*
X40663387Y-42036679D01*
X40654398Y-42037000D01*
X36234816Y-42037000D01*
X36166695Y-42016998D01*
X36162413Y-42014120D01*
X36142438Y-42000095D01*
X35929833Y-41850819D01*
X35885576Y-41795306D01*
X35878358Y-41724677D01*
X35910471Y-41661358D01*
X35971718Y-41625452D01*
X36002237Y-41621700D01*
X36884345Y-41621700D01*
X36884345Y-41621699D01*
X36921579Y-41618769D01*
X37080960Y-41572465D01*
X37223819Y-41487978D01*
X37341178Y-41370619D01*
X37425665Y-41227760D01*
X37471969Y-41068379D01*
X37474899Y-41031145D01*
X37474900Y-41031145D01*
X37474900Y-40315507D01*
X37494902Y-40247386D01*
X37548558Y-40200893D01*
X37618832Y-40190789D01*
X37650531Y-40201184D01*
G37*
%TD.AperFunction*%
%TA.AperFunction,Conductor*%
G36*
X52330162Y-25901106D02*
G01*
X52461778Y-25914070D01*
X52485992Y-25918886D01*
X52606599Y-25955472D01*
X52629418Y-25964924D01*
X52740565Y-26024333D01*
X52761101Y-26038054D01*
X52858527Y-26118009D01*
X52875992Y-26135474D01*
X52955944Y-26232897D01*
X52969666Y-26253434D01*
X53029075Y-26364581D01*
X53038527Y-26387401D01*
X53075111Y-26508001D01*
X53079930Y-26532226D01*
X53092893Y-26663836D01*
X53093500Y-26676187D01*
X53093500Y-32434468D01*
X53073498Y-32502589D01*
X53019842Y-32549082D01*
X52949568Y-32559186D01*
X52884988Y-32529692D01*
X52878405Y-32523563D01*
X52811979Y-32457137D01*
X52811975Y-32457134D01*
X52811974Y-32457133D01*
X52674552Y-32375862D01*
X52600860Y-32354452D01*
X52521242Y-32331321D01*
X52521238Y-32331320D01*
X52521237Y-32331320D01*
X52521233Y-32331319D01*
X52521229Y-32331319D01*
X52485415Y-32328500D01*
X51857794Y-32328500D01*
X51821964Y-32331319D01*
X51668644Y-32375863D01*
X51640447Y-32392539D01*
X51571631Y-32409998D01*
X51504299Y-32387480D01*
X51467857Y-32348227D01*
X51397067Y-32228526D01*
X51397063Y-32228522D01*
X51397062Y-32228520D01*
X51284179Y-32115637D01*
X51284175Y-32115634D01*
X51284174Y-32115633D01*
X51146752Y-32034362D01*
X51073060Y-32012952D01*
X50993442Y-31989821D01*
X50993438Y-31989820D01*
X50993437Y-31989820D01*
X50993433Y-31989819D01*
X50993429Y-31989819D01*
X50957615Y-31987000D01*
X49979994Y-31987000D01*
X49944163Y-31989820D01*
X49944161Y-31989820D01*
X49893084Y-32004659D01*
X49822088Y-32004456D01*
X49762472Y-31965901D01*
X49754237Y-31955238D01*
X49730915Y-31921450D01*
X49707409Y-31887396D01*
X49578914Y-31773560D01*
X49426911Y-31693782D01*
X49426907Y-31693780D01*
X49260236Y-31652700D01*
X49260233Y-31652700D01*
X49088567Y-31652700D01*
X49088563Y-31652700D01*
X48921892Y-31693780D01*
X48921888Y-31693782D01*
X48818367Y-31748115D01*
X48769886Y-31773560D01*
X48641391Y-31887396D01*
X48641389Y-31887398D01*
X48617748Y-31921647D01*
X48562589Y-31966345D01*
X48492020Y-31974126D01*
X48428447Y-31942520D01*
X48403877Y-31907233D01*
X48402347Y-31908051D01*
X48399428Y-31902590D01*
X48389276Y-31887396D01*
X48313202Y-31773543D01*
X48203457Y-31663798D01*
X47921604Y-31381945D01*
X47887578Y-31319633D01*
X47884699Y-31292850D01*
X47884699Y-30724994D01*
X47883247Y-30706533D01*
X47881880Y-30689163D01*
X47837338Y-30535848D01*
X47756067Y-30398426D01*
X47756065Y-30398424D01*
X47756062Y-30398420D01*
X47643179Y-30285537D01*
X47643175Y-30285534D01*
X47643174Y-30285533D01*
X47505752Y-30204262D01*
X47432060Y-30182852D01*
X47352442Y-30159721D01*
X47352438Y-30159720D01*
X47352437Y-30159720D01*
X47352433Y-30159719D01*
X47352429Y-30159719D01*
X47316615Y-30156900D01*
X46738994Y-30156900D01*
X46703164Y-30159719D01*
X46549845Y-30204263D01*
X46412424Y-30285534D01*
X46412420Y-30285537D01*
X46299537Y-30398420D01*
X46299534Y-30398424D01*
X46218263Y-30535845D01*
X46173721Y-30689157D01*
X46173719Y-30689170D01*
X46170900Y-30724984D01*
X46170900Y-31352605D01*
X46173719Y-31388435D01*
X46218262Y-31541752D01*
X46222353Y-31548669D01*
X46239900Y-31612809D01*
X46239900Y-31680004D01*
X46242641Y-31693782D01*
X46270179Y-31832222D01*
X46329572Y-31975610D01*
X46415798Y-32104657D01*
X46415802Y-32104661D01*
X46876395Y-32565254D01*
X46910421Y-32627566D01*
X46913300Y-32654349D01*
X46913300Y-32939500D01*
X46893298Y-33007621D01*
X46839642Y-33054114D01*
X46787300Y-33065500D01*
X46518800Y-33065500D01*
X46391516Y-33085660D01*
X46391514Y-33085660D01*
X46391514Y-33085661D01*
X46276691Y-33144165D01*
X46185565Y-33235291D01*
X46132219Y-33339990D01*
X46127060Y-33350116D01*
X46106900Y-33477400D01*
X46106900Y-35210400D01*
X46127060Y-35337684D01*
X46156313Y-35395096D01*
X46175625Y-35433000D01*
X46185566Y-35452509D01*
X46276691Y-35543634D01*
X46391516Y-35602140D01*
X46518800Y-35622300D01*
X46518803Y-35622300D01*
X49643797Y-35622300D01*
X49643800Y-35622300D01*
X49771084Y-35602140D01*
X49885909Y-35543634D01*
X49977034Y-35452509D01*
X50035540Y-35337684D01*
X50039594Y-35312086D01*
X50070005Y-35247936D01*
X50130273Y-35210409D01*
X50164042Y-35205800D01*
X50963870Y-35205800D01*
X51031991Y-35225802D01*
X51078484Y-35279458D01*
X51088951Y-35346987D01*
X51078508Y-35432996D01*
X51078508Y-35433003D01*
X51099198Y-35603412D01*
X51160075Y-35763929D01*
X51218864Y-35849098D01*
X51257591Y-35905204D01*
X51386086Y-36019040D01*
X51538089Y-36098818D01*
X51538090Y-36098818D01*
X51538092Y-36098819D01*
X51696207Y-36137790D01*
X51704767Y-36139900D01*
X51704770Y-36139900D01*
X51876430Y-36139900D01*
X51876433Y-36139900D01*
X52043111Y-36098818D01*
X52195114Y-36019040D01*
X52323609Y-35905204D01*
X52421126Y-35763926D01*
X52471800Y-35630306D01*
X52500517Y-35585894D01*
X52544410Y-35542003D01*
X52606723Y-35507979D01*
X52633503Y-35505100D01*
X52897445Y-35505100D01*
X52897445Y-35505099D01*
X52932901Y-35502309D01*
X52932914Y-35502305D01*
X52939239Y-35501151D01*
X52939484Y-35502493D01*
X53003325Y-35502666D01*
X53062947Y-35541212D01*
X53092266Y-35605872D01*
X53093500Y-35623466D01*
X53093500Y-36511108D01*
X53073498Y-36579229D01*
X53026454Y-36622465D01*
X52357426Y-36976657D01*
X52298472Y-36991300D01*
X52258554Y-36991300D01*
X52223106Y-36994090D01*
X52223093Y-36994092D01*
X52071294Y-37038194D01*
X51935240Y-37118657D01*
X51935233Y-37118662D01*
X51823463Y-37230432D01*
X51823458Y-37230438D01*
X51816659Y-37241935D01*
X51767163Y-37289147D01*
X51125492Y-37628857D01*
X51066538Y-37643500D01*
X50648770Y-37643500D01*
X50561694Y-37653957D01*
X50561688Y-37653958D01*
X50423113Y-37708605D01*
X50423110Y-37708607D01*
X50304415Y-37798615D01*
X50214407Y-37917310D01*
X50214405Y-37917313D01*
X50159758Y-38055888D01*
X50159757Y-38055893D01*
X50156818Y-38080370D01*
X50128836Y-38145619D01*
X50090671Y-38176702D01*
X48902353Y-38805812D01*
X48858422Y-38819556D01*
X48802705Y-38826246D01*
X48802703Y-38826247D01*
X48746371Y-38848462D01*
X48675662Y-38854845D01*
X48612727Y-38821986D01*
X48577548Y-38760318D01*
X48575700Y-38711534D01*
X48580200Y-38683125D01*
X48580200Y-38461678D01*
X48580200Y-38461675D01*
X48545557Y-38242950D01*
X48477125Y-38032338D01*
X48376588Y-37835024D01*
X48246423Y-37655866D01*
X48246420Y-37655863D01*
X48246418Y-37655860D01*
X48089839Y-37499281D01*
X48089836Y-37499279D01*
X48089834Y-37499277D01*
X47937915Y-37388902D01*
X47910679Y-37369114D01*
X47910678Y-37369113D01*
X47910676Y-37369112D01*
X47713362Y-37268575D01*
X47713359Y-37268574D01*
X47713357Y-37268573D01*
X47502755Y-37200144D01*
X47502751Y-37200143D01*
X47502750Y-37200143D01*
X47284025Y-37165500D01*
X47284022Y-37165500D01*
X46700347Y-37165500D01*
X46632226Y-37145498D01*
X46611252Y-37128595D01*
X42062032Y-32579375D01*
X42028006Y-32517063D01*
X42033071Y-32446248D01*
X42049188Y-32416224D01*
X42112288Y-32329376D01*
X42212825Y-32132062D01*
X42281257Y-31921450D01*
X42315900Y-31702725D01*
X42315900Y-31481275D01*
X42281257Y-31262550D01*
X42212825Y-31051938D01*
X42112288Y-30854624D01*
X41982123Y-30675466D01*
X41982120Y-30675463D01*
X41982118Y-30675460D01*
X41825539Y-30518881D01*
X41825536Y-30518879D01*
X41825534Y-30518877D01*
X41646376Y-30388712D01*
X41449062Y-30288175D01*
X41449059Y-30288174D01*
X41449057Y-30288173D01*
X41238455Y-30219744D01*
X41238451Y-30219743D01*
X41238450Y-30219743D01*
X41019725Y-30185100D01*
X39498275Y-30185100D01*
X39279550Y-30219743D01*
X39279544Y-30219744D01*
X39068942Y-30288173D01*
X39068936Y-30288176D01*
X38871620Y-30388714D01*
X38692463Y-30518879D01*
X38692460Y-30518881D01*
X38535881Y-30675460D01*
X38535879Y-30675463D01*
X38405714Y-30854620D01*
X38305174Y-31051939D01*
X38239785Y-31253183D01*
X38235764Y-31263880D01*
X37607552Y-32729710D01*
X37562333Y-32784443D01*
X37558520Y-32786924D01*
X35580110Y-34023430D01*
X35536691Y-34040397D01*
X32867600Y-34543999D01*
X32854333Y-34559717D01*
X32795109Y-34598871D01*
X32743025Y-34603546D01*
X32706001Y-34599100D01*
X30968804Y-34599100D01*
X30968792Y-34599101D01*
X30879306Y-34609846D01*
X30736888Y-34666009D01*
X30614909Y-34758509D01*
X30522407Y-34880490D01*
X30522406Y-34880492D01*
X30513592Y-34902844D01*
X30485473Y-34945713D01*
X29061752Y-36369434D01*
X28999440Y-36403460D01*
X28928625Y-36398395D01*
X28871789Y-36355848D01*
X28854845Y-36325019D01*
X28824526Y-36245074D01*
X28727009Y-36103796D01*
X28598514Y-35989960D01*
X28446511Y-35910182D01*
X28446507Y-35910180D01*
X28279836Y-35869100D01*
X28279833Y-35869100D01*
X28108167Y-35869100D01*
X28108163Y-35869100D01*
X27968758Y-35903460D01*
X27897830Y-35900341D01*
X27892383Y-35898337D01*
X27845495Y-35879847D01*
X27845490Y-35879846D01*
X27756003Y-35869100D01*
X26026500Y-35869100D01*
X25958379Y-35849098D01*
X25911886Y-35795442D01*
X25900500Y-35743100D01*
X25900500Y-32581799D01*
X25920502Y-32513678D01*
X25974158Y-32467185D01*
X26039421Y-32457029D01*
X26039443Y-32456675D01*
X26041073Y-32456772D01*
X26041537Y-32456700D01*
X26043199Y-32456900D01*
X27155400Y-32456899D01*
X27244894Y-32446153D01*
X27387309Y-32389992D01*
X27390622Y-32387480D01*
X27392963Y-32385705D01*
X27459327Y-32360480D01*
X27469099Y-32360100D01*
X27674868Y-32360100D01*
X27733418Y-32374530D01*
X27738659Y-32377281D01*
X27789679Y-32426648D01*
X27805912Y-32495764D01*
X27805205Y-32503856D01*
X27804900Y-32506394D01*
X27804900Y-32893595D01*
X27804901Y-32893607D01*
X27815646Y-32983093D01*
X27871809Y-33125511D01*
X27964309Y-33247490D01*
X28086288Y-33339990D01*
X28086291Y-33339992D01*
X28228706Y-33396153D01*
X28318199Y-33406900D01*
X29430400Y-33406899D01*
X29519894Y-33396153D01*
X29662309Y-33339992D01*
X29784290Y-33247490D01*
X29876792Y-33125509D01*
X29932953Y-32983094D01*
X29943700Y-32893601D01*
X29943699Y-32506400D01*
X29932953Y-32416906D01*
X29876792Y-32274491D01*
X29876790Y-32274488D01*
X29784290Y-32152509D01*
X29662311Y-32060009D01*
X29662309Y-32060008D01*
X29591056Y-32031909D01*
X29535024Y-31988312D01*
X29511456Y-31921341D01*
X29519468Y-31870016D01*
X29565700Y-31748115D01*
X29565700Y-31748114D01*
X29565701Y-31748112D01*
X29586392Y-31577703D01*
X29586392Y-31577696D01*
X29565701Y-31407287D01*
X29544963Y-31352605D01*
X29504826Y-31246774D01*
X29504824Y-31246772D01*
X29504824Y-31246770D01*
X29417250Y-31119898D01*
X29407309Y-31105496D01*
X29278814Y-30991660D01*
X29126811Y-30911882D01*
X29126807Y-30911880D01*
X28960136Y-30870800D01*
X28960133Y-30870800D01*
X28788467Y-30870800D01*
X28788463Y-30870800D01*
X28621792Y-30911880D01*
X28621788Y-30911882D01*
X28469783Y-30991661D01*
X28469782Y-30991662D01*
X28412499Y-31042410D01*
X28348246Y-31072610D01*
X28277866Y-31063278D01*
X28270391Y-31059664D01*
X28268711Y-31058782D01*
X28268707Y-31058780D01*
X28102036Y-31017700D01*
X28102033Y-31017700D01*
X27930367Y-31017700D01*
X27930363Y-31017700D01*
X27763692Y-31058780D01*
X27763684Y-31058784D01*
X27636631Y-31125467D01*
X27578076Y-31139900D01*
X27469099Y-31139900D01*
X27400978Y-31119898D01*
X27392963Y-31114295D01*
X27387312Y-31110009D01*
X27244896Y-31053847D01*
X27244890Y-31053846D01*
X27155401Y-31043100D01*
X26043204Y-31043100D01*
X26043201Y-31043100D01*
X26043200Y-31043101D01*
X26041510Y-31043303D01*
X26041064Y-31043229D01*
X26039446Y-31043326D01*
X26039423Y-31042953D01*
X25971493Y-31031560D01*
X25918939Y-30983825D01*
X25900500Y-30918201D01*
X25900500Y-27828540D01*
X26239500Y-27828540D01*
X26239500Y-28051459D01*
X26268594Y-28272456D01*
X26270184Y-28278389D01*
X26326290Y-28487781D01*
X26411595Y-28693726D01*
X26411596Y-28693727D01*
X26411601Y-28693737D01*
X26523049Y-28886770D01*
X26658753Y-29063624D01*
X26658762Y-29063634D01*
X26816365Y-29221237D01*
X26816375Y-29221246D01*
X26816376Y-29221247D01*
X26993226Y-29356948D01*
X27186274Y-29468405D01*
X27392219Y-29553710D01*
X27607537Y-29611404D01*
X27607541Y-29611404D01*
X27607543Y-29611405D01*
X27664501Y-29618903D01*
X27828543Y-29640500D01*
X27828550Y-29640500D01*
X28051450Y-29640500D01*
X28051457Y-29640500D01*
X28251191Y-29614204D01*
X28272456Y-29611405D01*
X28272456Y-29611404D01*
X28272463Y-29611404D01*
X28487781Y-29553710D01*
X28693726Y-29468405D01*
X28701356Y-29464000D01*
X31148699Y-29464000D01*
X31167867Y-29683092D01*
X31198370Y-29796934D01*
X31224788Y-29895525D01*
X31224790Y-29895530D01*
X31317735Y-30094851D01*
X31363157Y-30159721D01*
X31443881Y-30275006D01*
X31599394Y-30430519D01*
X31779549Y-30556665D01*
X31978873Y-30649611D01*
X32191308Y-30706533D01*
X32410400Y-30725701D01*
X32629492Y-30706533D01*
X32841927Y-30649611D01*
X33041251Y-30556665D01*
X33221406Y-30430519D01*
X33376919Y-30275006D01*
X33503065Y-30094851D01*
X33596011Y-29895527D01*
X33652933Y-29683092D01*
X33672101Y-29464000D01*
X33652933Y-29244908D01*
X33596011Y-29032473D01*
X33503065Y-28833150D01*
X33503064Y-28833149D01*
X33503063Y-28833146D01*
X33376925Y-28653002D01*
X33376922Y-28652998D01*
X33376919Y-28652994D01*
X33225379Y-28501454D01*
X39108500Y-28501454D01*
X39108500Y-28682546D01*
X39136829Y-28861409D01*
X39192789Y-29033639D01*
X39275004Y-29194994D01*
X39381447Y-29341501D01*
X39381449Y-29341503D01*
X39381451Y-29341506D01*
X39509493Y-29469548D01*
X39509496Y-29469550D01*
X39509499Y-29469553D01*
X39656006Y-29575996D01*
X39817361Y-29658211D01*
X39989591Y-29714171D01*
X40168454Y-29742500D01*
X40168457Y-29742500D01*
X40349543Y-29742500D01*
X40349546Y-29742500D01*
X40528409Y-29714171D01*
X40700639Y-29658211D01*
X40861994Y-29575996D01*
X41008501Y-29469553D01*
X41136553Y-29341501D01*
X41242996Y-29194994D01*
X41325211Y-29033639D01*
X41381171Y-28861409D01*
X41409500Y-28682546D01*
X41409500Y-28501454D01*
X41381171Y-28322591D01*
X41325211Y-28150361D01*
X41242996Y-27989006D01*
X41136553Y-27842499D01*
X41136550Y-27842496D01*
X41136548Y-27842493D01*
X41122595Y-27828540D01*
X49353500Y-27828540D01*
X49353500Y-28051459D01*
X49382594Y-28272456D01*
X49384184Y-28278389D01*
X49440290Y-28487781D01*
X49525595Y-28693726D01*
X49525596Y-28693727D01*
X49525601Y-28693737D01*
X49637049Y-28886770D01*
X49772753Y-29063624D01*
X49772762Y-29063634D01*
X49930365Y-29221237D01*
X49930375Y-29221246D01*
X49930376Y-29221247D01*
X50107226Y-29356948D01*
X50300274Y-29468405D01*
X50506219Y-29553710D01*
X50721537Y-29611404D01*
X50721541Y-29611404D01*
X50721543Y-29611405D01*
X50778501Y-29618903D01*
X50942543Y-29640500D01*
X50942550Y-29640500D01*
X51165450Y-29640500D01*
X51165457Y-29640500D01*
X51365191Y-29614204D01*
X51386456Y-29611405D01*
X51386456Y-29611404D01*
X51386463Y-29611404D01*
X51601781Y-29553710D01*
X51807726Y-29468405D01*
X52000774Y-29356948D01*
X52177624Y-29221247D01*
X52335247Y-29063624D01*
X52470948Y-28886774D01*
X52582405Y-28693726D01*
X52667710Y-28487781D01*
X52725404Y-28272463D01*
X52754500Y-28051457D01*
X52754500Y-27828543D01*
X52725466Y-27608006D01*
X52725405Y-27607543D01*
X52725404Y-27607541D01*
X52725404Y-27607537D01*
X52667710Y-27392219D01*
X52582405Y-27186274D01*
X52470948Y-26993226D01*
X52335247Y-26816376D01*
X52335246Y-26816375D01*
X52335237Y-26816365D01*
X52177634Y-26658762D01*
X52177624Y-26658753D01*
X52000770Y-26523049D01*
X51807737Y-26411601D01*
X51807732Y-26411598D01*
X51807726Y-26411595D01*
X51601781Y-26326290D01*
X51386463Y-26268596D01*
X51386456Y-26268594D01*
X51165459Y-26239500D01*
X51165457Y-26239500D01*
X50942543Y-26239500D01*
X50942540Y-26239500D01*
X50721543Y-26268594D01*
X50506219Y-26326290D01*
X50300272Y-26411596D01*
X50300262Y-26411601D01*
X50107229Y-26523049D01*
X49930375Y-26658753D01*
X49930365Y-26658762D01*
X49772762Y-26816365D01*
X49772753Y-26816375D01*
X49637049Y-26993229D01*
X49525601Y-27186262D01*
X49525596Y-27186272D01*
X49440290Y-27392219D01*
X49382594Y-27607543D01*
X49353500Y-27828540D01*
X41122595Y-27828540D01*
X41008506Y-27714451D01*
X41008503Y-27714449D01*
X41008501Y-27714447D01*
X40861994Y-27608004D01*
X40700639Y-27525789D01*
X40700636Y-27525788D01*
X40700634Y-27525787D01*
X40528412Y-27469830D01*
X40528409Y-27469829D01*
X40349546Y-27441500D01*
X40168454Y-27441500D01*
X39989591Y-27469829D01*
X39989588Y-27469829D01*
X39989587Y-27469830D01*
X39817365Y-27525787D01*
X39817359Y-27525790D01*
X39656002Y-27608006D01*
X39509496Y-27714449D01*
X39509493Y-27714451D01*
X39381451Y-27842493D01*
X39381449Y-27842496D01*
X39275006Y-27989002D01*
X39192790Y-28150359D01*
X39192787Y-28150365D01*
X39136830Y-28322587D01*
X39136829Y-28322591D01*
X39108500Y-28501454D01*
X33225379Y-28501454D01*
X33221406Y-28497481D01*
X33041251Y-28371335D01*
X32936719Y-28322591D01*
X32841930Y-28278390D01*
X32841925Y-28278388D01*
X32743334Y-28251970D01*
X32629492Y-28221467D01*
X32410400Y-28202299D01*
X32191308Y-28221467D01*
X32134387Y-28236718D01*
X31978874Y-28278388D01*
X31978870Y-28278390D01*
X31779546Y-28371336D01*
X31599402Y-28497474D01*
X31599391Y-28497483D01*
X31443883Y-28652991D01*
X31443874Y-28653002D01*
X31317736Y-28833146D01*
X31224790Y-29032470D01*
X31224788Y-29032474D01*
X31216439Y-29063634D01*
X31167867Y-29244908D01*
X31148699Y-29464000D01*
X28701356Y-29464000D01*
X28886774Y-29356948D01*
X29063624Y-29221247D01*
X29221247Y-29063624D01*
X29356948Y-28886774D01*
X29468405Y-28693726D01*
X29553710Y-28487781D01*
X29611404Y-28272463D01*
X29640500Y-28051457D01*
X29640500Y-27828543D01*
X29611466Y-27608006D01*
X29611405Y-27607543D01*
X29611404Y-27607541D01*
X29611404Y-27607537D01*
X29553710Y-27392219D01*
X29468405Y-27186274D01*
X29356948Y-26993226D01*
X29221247Y-26816376D01*
X29221246Y-26816375D01*
X29221237Y-26816365D01*
X29063634Y-26658762D01*
X29063624Y-26658753D01*
X28886770Y-26523049D01*
X28693737Y-26411601D01*
X28693732Y-26411598D01*
X28693726Y-26411595D01*
X28487781Y-26326290D01*
X28272463Y-26268596D01*
X28272456Y-26268594D01*
X28051459Y-26239500D01*
X28051457Y-26239500D01*
X27828543Y-26239500D01*
X27828540Y-26239500D01*
X27607543Y-26268594D01*
X27392219Y-26326290D01*
X27186272Y-26411596D01*
X27186262Y-26411601D01*
X26993229Y-26523049D01*
X26816375Y-26658753D01*
X26816365Y-26658762D01*
X26658762Y-26816365D01*
X26658753Y-26816375D01*
X26523049Y-26993229D01*
X26411601Y-27186262D01*
X26411596Y-27186272D01*
X26326290Y-27392219D01*
X26268594Y-27607543D01*
X26239500Y-27828540D01*
X25900500Y-27828540D01*
X25900500Y-26676187D01*
X25901107Y-26663837D01*
X25906990Y-26604108D01*
X25914070Y-26532219D01*
X25918886Y-26508009D01*
X25955473Y-26387396D01*
X25964921Y-26364586D01*
X26024336Y-26253428D01*
X26038051Y-26232902D01*
X26118014Y-26135466D01*
X26135466Y-26118014D01*
X26232902Y-26038051D01*
X26253428Y-26024336D01*
X26364586Y-25964921D01*
X26387396Y-25955473D01*
X26508009Y-25918886D01*
X26532219Y-25914070D01*
X26663837Y-25901106D01*
X26676187Y-25900500D01*
X26735892Y-25900500D01*
X52258108Y-25900500D01*
X52317813Y-25900500D01*
X52330162Y-25901106D01*
G37*
%TD.AperFunction*%
%TD*%
M02*
