%TF.GenerationSoftware,KiCad,Pcbnew,8.0.4*%
%TF.CreationDate,2024-09-07T16:21:25-07:00*%
%TF.ProjectId,upiez,75706965-7a2e-46b6-9963-61645f706362,rev?*%
%TF.SameCoordinates,Original*%
%TF.FileFunction,Drillmap*%
%TF.FilePolarity,Positive*%
%FSLAX45Y45*%
G04 Gerber Fmt 4.5, Leading zero omitted, Abs format (unit mm)*
G04 Created by KiCad (PCBNEW 8.0.4) date 2024-09-07 16:21:25*
%MOMM*%
%LPD*%
G01*
G04 APERTURE LIST*
%ADD10C,0.050000*%
%ADD11C,0.200000*%
%ADD12C,0.160000*%
%ADD13C,0.270000*%
G04 APERTURE END LIST*
D10*
X5359400Y-4445000D02*
G75*
G02*
X5232400Y-4572000I-127000J0D01*
G01*
X2540000Y-2971800D02*
X2540000Y-2667000D01*
X5232400Y-2540000D02*
G75*
G02*
X5359400Y-2667000I0J-127000D01*
G01*
X2540000Y-4445000D02*
X2540000Y-2971800D01*
X2667000Y-4572000D02*
G75*
G02*
X2540000Y-4445000I0J127000D01*
G01*
X2667000Y-2540000D02*
X5232400Y-2540000D01*
X2540000Y-2667000D02*
G75*
G02*
X2667000Y-2540000I127000J0D01*
G01*
X5359400Y-2667000D02*
X5359400Y-4445000D01*
X5232400Y-4572000D02*
X2667000Y-4572000D01*
D11*
D12*
X3945900Y-2779200D02*
X4105900Y-2939200D01*
X4105900Y-2779200D02*
X3945900Y-2939200D01*
D13*
X2929000Y-2794000D02*
G75*
G02*
X2659000Y-2794000I-135000J0D01*
G01*
X2659000Y-2794000D02*
G75*
G02*
X2929000Y-2794000I135000J0D01*
G01*
X2929000Y-4318000D02*
G75*
G02*
X2659000Y-4318000I-135000J0D01*
G01*
X2659000Y-4318000D02*
G75*
G02*
X2929000Y-4318000I135000J0D01*
G01*
X5240400Y-2794000D02*
G75*
G02*
X4970400Y-2794000I-135000J0D01*
G01*
X4970400Y-2794000D02*
G75*
G02*
X5240400Y-2794000I135000J0D01*
G01*
X5240400Y-4318000D02*
G75*
G02*
X4970400Y-4318000I-135000J0D01*
G01*
X4970400Y-4318000D02*
G75*
G02*
X5240400Y-4318000I135000J0D01*
G01*
D11*
X2798277Y-4885984D02*
X2798277Y-4685984D01*
X2798277Y-4685984D02*
X2845896Y-4685984D01*
X2845896Y-4685984D02*
X2874467Y-4695508D01*
X2874467Y-4695508D02*
X2893515Y-4714555D01*
X2893515Y-4714555D02*
X2903039Y-4733603D01*
X2903039Y-4733603D02*
X2912562Y-4771698D01*
X2912562Y-4771698D02*
X2912562Y-4800270D01*
X2912562Y-4800270D02*
X2903039Y-4838365D01*
X2903039Y-4838365D02*
X2893515Y-4857412D01*
X2893515Y-4857412D02*
X2874467Y-4876460D01*
X2874467Y-4876460D02*
X2845896Y-4885984D01*
X2845896Y-4885984D02*
X2798277Y-4885984D01*
X2998277Y-4885984D02*
X2998277Y-4752650D01*
X2998277Y-4790746D02*
X3007801Y-4771698D01*
X3007801Y-4771698D02*
X3017324Y-4762174D01*
X3017324Y-4762174D02*
X3036372Y-4752650D01*
X3036372Y-4752650D02*
X3055420Y-4752650D01*
X3122086Y-4885984D02*
X3122086Y-4752650D01*
X3122086Y-4685984D02*
X3112562Y-4695508D01*
X3112562Y-4695508D02*
X3122086Y-4705031D01*
X3122086Y-4705031D02*
X3131610Y-4695508D01*
X3131610Y-4695508D02*
X3122086Y-4685984D01*
X3122086Y-4685984D02*
X3122086Y-4705031D01*
X3245896Y-4885984D02*
X3226848Y-4876460D01*
X3226848Y-4876460D02*
X3217324Y-4857412D01*
X3217324Y-4857412D02*
X3217324Y-4685984D01*
X3350658Y-4885984D02*
X3331610Y-4876460D01*
X3331610Y-4876460D02*
X3322086Y-4857412D01*
X3322086Y-4857412D02*
X3322086Y-4685984D01*
X3579229Y-4885984D02*
X3579229Y-4685984D01*
X3579229Y-4685984D02*
X3645896Y-4828841D01*
X3645896Y-4828841D02*
X3712562Y-4685984D01*
X3712562Y-4685984D02*
X3712562Y-4885984D01*
X3893515Y-4885984D02*
X3893515Y-4781222D01*
X3893515Y-4781222D02*
X3883991Y-4762174D01*
X3883991Y-4762174D02*
X3864943Y-4752650D01*
X3864943Y-4752650D02*
X3826848Y-4752650D01*
X3826848Y-4752650D02*
X3807801Y-4762174D01*
X3893515Y-4876460D02*
X3874467Y-4885984D01*
X3874467Y-4885984D02*
X3826848Y-4885984D01*
X3826848Y-4885984D02*
X3807801Y-4876460D01*
X3807801Y-4876460D02*
X3798277Y-4857412D01*
X3798277Y-4857412D02*
X3798277Y-4838365D01*
X3798277Y-4838365D02*
X3807801Y-4819317D01*
X3807801Y-4819317D02*
X3826848Y-4809793D01*
X3826848Y-4809793D02*
X3874467Y-4809793D01*
X3874467Y-4809793D02*
X3893515Y-4800270D01*
X3988753Y-4752650D02*
X3988753Y-4952650D01*
X3988753Y-4762174D02*
X4007801Y-4752650D01*
X4007801Y-4752650D02*
X4045896Y-4752650D01*
X4045896Y-4752650D02*
X4064943Y-4762174D01*
X4064943Y-4762174D02*
X4074467Y-4771698D01*
X4074467Y-4771698D02*
X4083991Y-4790746D01*
X4083991Y-4790746D02*
X4083991Y-4847889D01*
X4083991Y-4847889D02*
X4074467Y-4866936D01*
X4074467Y-4866936D02*
X4064943Y-4876460D01*
X4064943Y-4876460D02*
X4045896Y-4885984D01*
X4045896Y-4885984D02*
X4007801Y-4885984D01*
X4007801Y-4885984D02*
X3988753Y-4876460D01*
X4169705Y-4866936D02*
X4179229Y-4876460D01*
X4179229Y-4876460D02*
X4169705Y-4885984D01*
X4169705Y-4885984D02*
X4160182Y-4876460D01*
X4160182Y-4876460D02*
X4169705Y-4866936D01*
X4169705Y-4866936D02*
X4169705Y-4885984D01*
X4169705Y-4762174D02*
X4179229Y-4771698D01*
X4179229Y-4771698D02*
X4169705Y-4781222D01*
X4169705Y-4781222D02*
X4160182Y-4771698D01*
X4160182Y-4771698D02*
X4169705Y-4762174D01*
X4169705Y-4762174D02*
X4169705Y-4781222D01*
D12*
X2377500Y-5134500D02*
X2537500Y-5294500D01*
X2537500Y-5134500D02*
X2377500Y-5294500D01*
D11*
X2903039Y-5305984D02*
X2788753Y-5305984D01*
X2845896Y-5305984D02*
X2845896Y-5105984D01*
X2845896Y-5105984D02*
X2826848Y-5134555D01*
X2826848Y-5134555D02*
X2807801Y-5153603D01*
X2807801Y-5153603D02*
X2788753Y-5163127D01*
X2988753Y-5286936D02*
X2998277Y-5296460D01*
X2998277Y-5296460D02*
X2988753Y-5305984D01*
X2988753Y-5305984D02*
X2979229Y-5296460D01*
X2979229Y-5296460D02*
X2988753Y-5286936D01*
X2988753Y-5286936D02*
X2988753Y-5305984D01*
X3169705Y-5105984D02*
X3131610Y-5105984D01*
X3131610Y-5105984D02*
X3112562Y-5115508D01*
X3112562Y-5115508D02*
X3103039Y-5125031D01*
X3103039Y-5125031D02*
X3083991Y-5153603D01*
X3083991Y-5153603D02*
X3074467Y-5191698D01*
X3074467Y-5191698D02*
X3074467Y-5267889D01*
X3074467Y-5267889D02*
X3083991Y-5286936D01*
X3083991Y-5286936D02*
X3093515Y-5296460D01*
X3093515Y-5296460D02*
X3112562Y-5305984D01*
X3112562Y-5305984D02*
X3150658Y-5305984D01*
X3150658Y-5305984D02*
X3169705Y-5296460D01*
X3169705Y-5296460D02*
X3179229Y-5286936D01*
X3179229Y-5286936D02*
X3188753Y-5267889D01*
X3188753Y-5267889D02*
X3188753Y-5220270D01*
X3188753Y-5220270D02*
X3179229Y-5201222D01*
X3179229Y-5201222D02*
X3169705Y-5191698D01*
X3169705Y-5191698D02*
X3150658Y-5182174D01*
X3150658Y-5182174D02*
X3112562Y-5182174D01*
X3112562Y-5182174D02*
X3093515Y-5191698D01*
X3093515Y-5191698D02*
X3083991Y-5201222D01*
X3083991Y-5201222D02*
X3074467Y-5220270D01*
X3312562Y-5105984D02*
X3331610Y-5105984D01*
X3331610Y-5105984D02*
X3350658Y-5115508D01*
X3350658Y-5115508D02*
X3360182Y-5125031D01*
X3360182Y-5125031D02*
X3369705Y-5144079D01*
X3369705Y-5144079D02*
X3379229Y-5182174D01*
X3379229Y-5182174D02*
X3379229Y-5229793D01*
X3379229Y-5229793D02*
X3369705Y-5267889D01*
X3369705Y-5267889D02*
X3360182Y-5286936D01*
X3360182Y-5286936D02*
X3350658Y-5296460D01*
X3350658Y-5296460D02*
X3331610Y-5305984D01*
X3331610Y-5305984D02*
X3312562Y-5305984D01*
X3312562Y-5305984D02*
X3293515Y-5296460D01*
X3293515Y-5296460D02*
X3283991Y-5286936D01*
X3283991Y-5286936D02*
X3274467Y-5267889D01*
X3274467Y-5267889D02*
X3264943Y-5229793D01*
X3264943Y-5229793D02*
X3264943Y-5182174D01*
X3264943Y-5182174D02*
X3274467Y-5144079D01*
X3274467Y-5144079D02*
X3283991Y-5125031D01*
X3283991Y-5125031D02*
X3293515Y-5115508D01*
X3293515Y-5115508D02*
X3312562Y-5105984D01*
X3503039Y-5105984D02*
X3522086Y-5105984D01*
X3522086Y-5105984D02*
X3541134Y-5115508D01*
X3541134Y-5115508D02*
X3550658Y-5125031D01*
X3550658Y-5125031D02*
X3560182Y-5144079D01*
X3560182Y-5144079D02*
X3569705Y-5182174D01*
X3569705Y-5182174D02*
X3569705Y-5229793D01*
X3569705Y-5229793D02*
X3560182Y-5267889D01*
X3560182Y-5267889D02*
X3550658Y-5286936D01*
X3550658Y-5286936D02*
X3541134Y-5296460D01*
X3541134Y-5296460D02*
X3522086Y-5305984D01*
X3522086Y-5305984D02*
X3503039Y-5305984D01*
X3503039Y-5305984D02*
X3483991Y-5296460D01*
X3483991Y-5296460D02*
X3474467Y-5286936D01*
X3474467Y-5286936D02*
X3464943Y-5267889D01*
X3464943Y-5267889D02*
X3455420Y-5229793D01*
X3455420Y-5229793D02*
X3455420Y-5182174D01*
X3455420Y-5182174D02*
X3464943Y-5144079D01*
X3464943Y-5144079D02*
X3474467Y-5125031D01*
X3474467Y-5125031D02*
X3483991Y-5115508D01*
X3483991Y-5115508D02*
X3503039Y-5105984D01*
X3655420Y-5305984D02*
X3655420Y-5172650D01*
X3655420Y-5191698D02*
X3664943Y-5182174D01*
X3664943Y-5182174D02*
X3683991Y-5172650D01*
X3683991Y-5172650D02*
X3712563Y-5172650D01*
X3712563Y-5172650D02*
X3731610Y-5182174D01*
X3731610Y-5182174D02*
X3741134Y-5201222D01*
X3741134Y-5201222D02*
X3741134Y-5305984D01*
X3741134Y-5201222D02*
X3750658Y-5182174D01*
X3750658Y-5182174D02*
X3769705Y-5172650D01*
X3769705Y-5172650D02*
X3798277Y-5172650D01*
X3798277Y-5172650D02*
X3817324Y-5182174D01*
X3817324Y-5182174D02*
X3826848Y-5201222D01*
X3826848Y-5201222D02*
X3826848Y-5305984D01*
X3922086Y-5305984D02*
X3922086Y-5172650D01*
X3922086Y-5191698D02*
X3931610Y-5182174D01*
X3931610Y-5182174D02*
X3950658Y-5172650D01*
X3950658Y-5172650D02*
X3979229Y-5172650D01*
X3979229Y-5172650D02*
X3998277Y-5182174D01*
X3998277Y-5182174D02*
X4007801Y-5201222D01*
X4007801Y-5201222D02*
X4007801Y-5305984D01*
X4007801Y-5201222D02*
X4017324Y-5182174D01*
X4017324Y-5182174D02*
X4036372Y-5172650D01*
X4036372Y-5172650D02*
X4064943Y-5172650D01*
X4064943Y-5172650D02*
X4083991Y-5182174D01*
X4083991Y-5182174D02*
X4093515Y-5201222D01*
X4093515Y-5201222D02*
X4093515Y-5305984D01*
X4483991Y-5096460D02*
X4312563Y-5353603D01*
X4741134Y-5105984D02*
X4760182Y-5105984D01*
X4760182Y-5105984D02*
X4779229Y-5115508D01*
X4779229Y-5115508D02*
X4788753Y-5125031D01*
X4788753Y-5125031D02*
X4798277Y-5144079D01*
X4798277Y-5144079D02*
X4807801Y-5182174D01*
X4807801Y-5182174D02*
X4807801Y-5229793D01*
X4807801Y-5229793D02*
X4798277Y-5267889D01*
X4798277Y-5267889D02*
X4788753Y-5286936D01*
X4788753Y-5286936D02*
X4779229Y-5296460D01*
X4779229Y-5296460D02*
X4760182Y-5305984D01*
X4760182Y-5305984D02*
X4741134Y-5305984D01*
X4741134Y-5305984D02*
X4722087Y-5296460D01*
X4722087Y-5296460D02*
X4712563Y-5286936D01*
X4712563Y-5286936D02*
X4703039Y-5267889D01*
X4703039Y-5267889D02*
X4693515Y-5229793D01*
X4693515Y-5229793D02*
X4693515Y-5182174D01*
X4693515Y-5182174D02*
X4703039Y-5144079D01*
X4703039Y-5144079D02*
X4712563Y-5125031D01*
X4712563Y-5125031D02*
X4722087Y-5115508D01*
X4722087Y-5115508D02*
X4741134Y-5105984D01*
X4893515Y-5286936D02*
X4903039Y-5296460D01*
X4903039Y-5296460D02*
X4893515Y-5305984D01*
X4893515Y-5305984D02*
X4883991Y-5296460D01*
X4883991Y-5296460D02*
X4893515Y-5286936D01*
X4893515Y-5286936D02*
X4893515Y-5305984D01*
X5026848Y-5105984D02*
X5045896Y-5105984D01*
X5045896Y-5105984D02*
X5064944Y-5115508D01*
X5064944Y-5115508D02*
X5074468Y-5125031D01*
X5074468Y-5125031D02*
X5083991Y-5144079D01*
X5083991Y-5144079D02*
X5093515Y-5182174D01*
X5093515Y-5182174D02*
X5093515Y-5229793D01*
X5093515Y-5229793D02*
X5083991Y-5267889D01*
X5083991Y-5267889D02*
X5074468Y-5286936D01*
X5074468Y-5286936D02*
X5064944Y-5296460D01*
X5064944Y-5296460D02*
X5045896Y-5305984D01*
X5045896Y-5305984D02*
X5026848Y-5305984D01*
X5026848Y-5305984D02*
X5007801Y-5296460D01*
X5007801Y-5296460D02*
X4998277Y-5286936D01*
X4998277Y-5286936D02*
X4988753Y-5267889D01*
X4988753Y-5267889D02*
X4979229Y-5229793D01*
X4979229Y-5229793D02*
X4979229Y-5182174D01*
X4979229Y-5182174D02*
X4988753Y-5144079D01*
X4988753Y-5144079D02*
X4998277Y-5125031D01*
X4998277Y-5125031D02*
X5007801Y-5115508D01*
X5007801Y-5115508D02*
X5026848Y-5105984D01*
X5264944Y-5105984D02*
X5226848Y-5105984D01*
X5226848Y-5105984D02*
X5207801Y-5115508D01*
X5207801Y-5115508D02*
X5198277Y-5125031D01*
X5198277Y-5125031D02*
X5179229Y-5153603D01*
X5179229Y-5153603D02*
X5169706Y-5191698D01*
X5169706Y-5191698D02*
X5169706Y-5267889D01*
X5169706Y-5267889D02*
X5179229Y-5286936D01*
X5179229Y-5286936D02*
X5188753Y-5296460D01*
X5188753Y-5296460D02*
X5207801Y-5305984D01*
X5207801Y-5305984D02*
X5245896Y-5305984D01*
X5245896Y-5305984D02*
X5264944Y-5296460D01*
X5264944Y-5296460D02*
X5274468Y-5286936D01*
X5274468Y-5286936D02*
X5283991Y-5267889D01*
X5283991Y-5267889D02*
X5283991Y-5220270D01*
X5283991Y-5220270D02*
X5274468Y-5201222D01*
X5274468Y-5201222D02*
X5264944Y-5191698D01*
X5264944Y-5191698D02*
X5245896Y-5182174D01*
X5245896Y-5182174D02*
X5207801Y-5182174D01*
X5207801Y-5182174D02*
X5188753Y-5191698D01*
X5188753Y-5191698D02*
X5179229Y-5201222D01*
X5179229Y-5201222D02*
X5169706Y-5220270D01*
X5350658Y-5105984D02*
X5474468Y-5105984D01*
X5474468Y-5105984D02*
X5407801Y-5182174D01*
X5407801Y-5182174D02*
X5436372Y-5182174D01*
X5436372Y-5182174D02*
X5455420Y-5191698D01*
X5455420Y-5191698D02*
X5464944Y-5201222D01*
X5464944Y-5201222D02*
X5474468Y-5220270D01*
X5474468Y-5220270D02*
X5474468Y-5267889D01*
X5474468Y-5267889D02*
X5464944Y-5286936D01*
X5464944Y-5286936D02*
X5455420Y-5296460D01*
X5455420Y-5296460D02*
X5436372Y-5305984D01*
X5436372Y-5305984D02*
X5379229Y-5305984D01*
X5379229Y-5305984D02*
X5360182Y-5296460D01*
X5360182Y-5296460D02*
X5350658Y-5286936D01*
X5598277Y-5105984D02*
X5617325Y-5105984D01*
X5617325Y-5105984D02*
X5636372Y-5115508D01*
X5636372Y-5115508D02*
X5645896Y-5125031D01*
X5645896Y-5125031D02*
X5655420Y-5144079D01*
X5655420Y-5144079D02*
X5664944Y-5182174D01*
X5664944Y-5182174D02*
X5664944Y-5229793D01*
X5664944Y-5229793D02*
X5655420Y-5267889D01*
X5655420Y-5267889D02*
X5645896Y-5286936D01*
X5645896Y-5286936D02*
X5636372Y-5296460D01*
X5636372Y-5296460D02*
X5617325Y-5305984D01*
X5617325Y-5305984D02*
X5598277Y-5305984D01*
X5598277Y-5305984D02*
X5579229Y-5296460D01*
X5579229Y-5296460D02*
X5569706Y-5286936D01*
X5569706Y-5286936D02*
X5560182Y-5267889D01*
X5560182Y-5267889D02*
X5550658Y-5229793D01*
X5550658Y-5229793D02*
X5550658Y-5182174D01*
X5550658Y-5182174D02*
X5560182Y-5144079D01*
X5560182Y-5144079D02*
X5569706Y-5125031D01*
X5569706Y-5125031D02*
X5579229Y-5115508D01*
X5579229Y-5115508D02*
X5598277Y-5105984D01*
X5741134Y-5105984D02*
X5741134Y-5144079D01*
X5817325Y-5105984D02*
X5817325Y-5144079D01*
X6112563Y-5382174D02*
X6103039Y-5372650D01*
X6103039Y-5372650D02*
X6083991Y-5344079D01*
X6083991Y-5344079D02*
X6074468Y-5325031D01*
X6074468Y-5325031D02*
X6064944Y-5296460D01*
X6064944Y-5296460D02*
X6055420Y-5248841D01*
X6055420Y-5248841D02*
X6055420Y-5210746D01*
X6055420Y-5210746D02*
X6064944Y-5163127D01*
X6064944Y-5163127D02*
X6074468Y-5134555D01*
X6074468Y-5134555D02*
X6083991Y-5115508D01*
X6083991Y-5115508D02*
X6103039Y-5086936D01*
X6103039Y-5086936D02*
X6112563Y-5077412D01*
X6293515Y-5305984D02*
X6179229Y-5305984D01*
X6236372Y-5305984D02*
X6236372Y-5105984D01*
X6236372Y-5105984D02*
X6217325Y-5134555D01*
X6217325Y-5134555D02*
X6198277Y-5153603D01*
X6198277Y-5153603D02*
X6179229Y-5163127D01*
X6531610Y-5305984D02*
X6531610Y-5105984D01*
X6617325Y-5305984D02*
X6617325Y-5201222D01*
X6617325Y-5201222D02*
X6607801Y-5182174D01*
X6607801Y-5182174D02*
X6588753Y-5172650D01*
X6588753Y-5172650D02*
X6560182Y-5172650D01*
X6560182Y-5172650D02*
X6541134Y-5182174D01*
X6541134Y-5182174D02*
X6531610Y-5191698D01*
X6741134Y-5305984D02*
X6722087Y-5296460D01*
X6722087Y-5296460D02*
X6712563Y-5286936D01*
X6712563Y-5286936D02*
X6703039Y-5267889D01*
X6703039Y-5267889D02*
X6703039Y-5210746D01*
X6703039Y-5210746D02*
X6712563Y-5191698D01*
X6712563Y-5191698D02*
X6722087Y-5182174D01*
X6722087Y-5182174D02*
X6741134Y-5172650D01*
X6741134Y-5172650D02*
X6769706Y-5172650D01*
X6769706Y-5172650D02*
X6788753Y-5182174D01*
X6788753Y-5182174D02*
X6798277Y-5191698D01*
X6798277Y-5191698D02*
X6807801Y-5210746D01*
X6807801Y-5210746D02*
X6807801Y-5267889D01*
X6807801Y-5267889D02*
X6798277Y-5286936D01*
X6798277Y-5286936D02*
X6788753Y-5296460D01*
X6788753Y-5296460D02*
X6769706Y-5305984D01*
X6769706Y-5305984D02*
X6741134Y-5305984D01*
X6922087Y-5305984D02*
X6903039Y-5296460D01*
X6903039Y-5296460D02*
X6893515Y-5277412D01*
X6893515Y-5277412D02*
X6893515Y-5105984D01*
X7074468Y-5296460D02*
X7055420Y-5305984D01*
X7055420Y-5305984D02*
X7017325Y-5305984D01*
X7017325Y-5305984D02*
X6998277Y-5296460D01*
X6998277Y-5296460D02*
X6988753Y-5277412D01*
X6988753Y-5277412D02*
X6988753Y-5201222D01*
X6988753Y-5201222D02*
X6998277Y-5182174D01*
X6998277Y-5182174D02*
X7017325Y-5172650D01*
X7017325Y-5172650D02*
X7055420Y-5172650D01*
X7055420Y-5172650D02*
X7074468Y-5182174D01*
X7074468Y-5182174D02*
X7083991Y-5201222D01*
X7083991Y-5201222D02*
X7083991Y-5220270D01*
X7083991Y-5220270D02*
X6988753Y-5239317D01*
X7150658Y-5382174D02*
X7160182Y-5372650D01*
X7160182Y-5372650D02*
X7179230Y-5344079D01*
X7179230Y-5344079D02*
X7188753Y-5325031D01*
X7188753Y-5325031D02*
X7198277Y-5296460D01*
X7198277Y-5296460D02*
X7207801Y-5248841D01*
X7207801Y-5248841D02*
X7207801Y-5210746D01*
X7207801Y-5210746D02*
X7198277Y-5163127D01*
X7198277Y-5163127D02*
X7188753Y-5134555D01*
X7188753Y-5134555D02*
X7179230Y-5115508D01*
X7179230Y-5115508D02*
X7160182Y-5086936D01*
X7160182Y-5086936D02*
X7150658Y-5077412D01*
X7512563Y-5382174D02*
X7503039Y-5372650D01*
X7503039Y-5372650D02*
X7483991Y-5344079D01*
X7483991Y-5344079D02*
X7474468Y-5325031D01*
X7474468Y-5325031D02*
X7464944Y-5296460D01*
X7464944Y-5296460D02*
X7455420Y-5248841D01*
X7455420Y-5248841D02*
X7455420Y-5210746D01*
X7455420Y-5210746D02*
X7464944Y-5163127D01*
X7464944Y-5163127D02*
X7474468Y-5134555D01*
X7474468Y-5134555D02*
X7483991Y-5115508D01*
X7483991Y-5115508D02*
X7503039Y-5086936D01*
X7503039Y-5086936D02*
X7512563Y-5077412D01*
X7588753Y-5172650D02*
X7588753Y-5305984D01*
X7588753Y-5191698D02*
X7598277Y-5182174D01*
X7598277Y-5182174D02*
X7617325Y-5172650D01*
X7617325Y-5172650D02*
X7645896Y-5172650D01*
X7645896Y-5172650D02*
X7664944Y-5182174D01*
X7664944Y-5182174D02*
X7674468Y-5201222D01*
X7674468Y-5201222D02*
X7674468Y-5305984D01*
X7798277Y-5305984D02*
X7779230Y-5296460D01*
X7779230Y-5296460D02*
X7769706Y-5286936D01*
X7769706Y-5286936D02*
X7760182Y-5267889D01*
X7760182Y-5267889D02*
X7760182Y-5210746D01*
X7760182Y-5210746D02*
X7769706Y-5191698D01*
X7769706Y-5191698D02*
X7779230Y-5182174D01*
X7779230Y-5182174D02*
X7798277Y-5172650D01*
X7798277Y-5172650D02*
X7826849Y-5172650D01*
X7826849Y-5172650D02*
X7845896Y-5182174D01*
X7845896Y-5182174D02*
X7855420Y-5191698D01*
X7855420Y-5191698D02*
X7864944Y-5210746D01*
X7864944Y-5210746D02*
X7864944Y-5267889D01*
X7864944Y-5267889D02*
X7855420Y-5286936D01*
X7855420Y-5286936D02*
X7845896Y-5296460D01*
X7845896Y-5296460D02*
X7826849Y-5305984D01*
X7826849Y-5305984D02*
X7798277Y-5305984D01*
X7922087Y-5172650D02*
X7998277Y-5172650D01*
X7950658Y-5105984D02*
X7950658Y-5277412D01*
X7950658Y-5277412D02*
X7960182Y-5296460D01*
X7960182Y-5296460D02*
X7979230Y-5305984D01*
X7979230Y-5305984D02*
X7998277Y-5305984D01*
X8217325Y-5172650D02*
X8217325Y-5372650D01*
X8217325Y-5182174D02*
X8236372Y-5172650D01*
X8236372Y-5172650D02*
X8274468Y-5172650D01*
X8274468Y-5172650D02*
X8293515Y-5182174D01*
X8293515Y-5182174D02*
X8303039Y-5191698D01*
X8303039Y-5191698D02*
X8312563Y-5210746D01*
X8312563Y-5210746D02*
X8312563Y-5267889D01*
X8312563Y-5267889D02*
X8303039Y-5286936D01*
X8303039Y-5286936D02*
X8293515Y-5296460D01*
X8293515Y-5296460D02*
X8274468Y-5305984D01*
X8274468Y-5305984D02*
X8236372Y-5305984D01*
X8236372Y-5305984D02*
X8217325Y-5296460D01*
X8426849Y-5305984D02*
X8407801Y-5296460D01*
X8407801Y-5296460D02*
X8398277Y-5277412D01*
X8398277Y-5277412D02*
X8398277Y-5105984D01*
X8588754Y-5305984D02*
X8588754Y-5201222D01*
X8588754Y-5201222D02*
X8579230Y-5182174D01*
X8579230Y-5182174D02*
X8560182Y-5172650D01*
X8560182Y-5172650D02*
X8522087Y-5172650D01*
X8522087Y-5172650D02*
X8503039Y-5182174D01*
X8588754Y-5296460D02*
X8569706Y-5305984D01*
X8569706Y-5305984D02*
X8522087Y-5305984D01*
X8522087Y-5305984D02*
X8503039Y-5296460D01*
X8503039Y-5296460D02*
X8493515Y-5277412D01*
X8493515Y-5277412D02*
X8493515Y-5258365D01*
X8493515Y-5258365D02*
X8503039Y-5239317D01*
X8503039Y-5239317D02*
X8522087Y-5229793D01*
X8522087Y-5229793D02*
X8569706Y-5229793D01*
X8569706Y-5229793D02*
X8588754Y-5220270D01*
X8655420Y-5172650D02*
X8731611Y-5172650D01*
X8683992Y-5105984D02*
X8683992Y-5277412D01*
X8683992Y-5277412D02*
X8693515Y-5296460D01*
X8693515Y-5296460D02*
X8712563Y-5305984D01*
X8712563Y-5305984D02*
X8731611Y-5305984D01*
X8874468Y-5296460D02*
X8855420Y-5305984D01*
X8855420Y-5305984D02*
X8817325Y-5305984D01*
X8817325Y-5305984D02*
X8798277Y-5296460D01*
X8798277Y-5296460D02*
X8788754Y-5277412D01*
X8788754Y-5277412D02*
X8788754Y-5201222D01*
X8788754Y-5201222D02*
X8798277Y-5182174D01*
X8798277Y-5182174D02*
X8817325Y-5172650D01*
X8817325Y-5172650D02*
X8855420Y-5172650D01*
X8855420Y-5172650D02*
X8874468Y-5182174D01*
X8874468Y-5182174D02*
X8883992Y-5201222D01*
X8883992Y-5201222D02*
X8883992Y-5220270D01*
X8883992Y-5220270D02*
X8788754Y-5239317D01*
X9055420Y-5305984D02*
X9055420Y-5105984D01*
X9055420Y-5296460D02*
X9036373Y-5305984D01*
X9036373Y-5305984D02*
X8998277Y-5305984D01*
X8998277Y-5305984D02*
X8979230Y-5296460D01*
X8979230Y-5296460D02*
X8969706Y-5286936D01*
X8969706Y-5286936D02*
X8960182Y-5267889D01*
X8960182Y-5267889D02*
X8960182Y-5210746D01*
X8960182Y-5210746D02*
X8969706Y-5191698D01*
X8969706Y-5191698D02*
X8979230Y-5182174D01*
X8979230Y-5182174D02*
X8998277Y-5172650D01*
X8998277Y-5172650D02*
X9036373Y-5172650D01*
X9036373Y-5172650D02*
X9055420Y-5182174D01*
X9131611Y-5382174D02*
X9141135Y-5372650D01*
X9141135Y-5372650D02*
X9160182Y-5344079D01*
X9160182Y-5344079D02*
X9169706Y-5325031D01*
X9169706Y-5325031D02*
X9179230Y-5296460D01*
X9179230Y-5296460D02*
X9188754Y-5248841D01*
X9188754Y-5248841D02*
X9188754Y-5210746D01*
X9188754Y-5210746D02*
X9179230Y-5163127D01*
X9179230Y-5163127D02*
X9169706Y-5134555D01*
X9169706Y-5134555D02*
X9160182Y-5115508D01*
X9160182Y-5115508D02*
X9141135Y-5086936D01*
X9141135Y-5086936D02*
X9131611Y-5077412D01*
X2537500Y-5494500D02*
G75*
G02*
X2337500Y-5494500I-100000J0D01*
G01*
X2337500Y-5494500D02*
G75*
G02*
X2537500Y-5494500I100000J0D01*
G01*
X2788753Y-5405031D02*
X2798277Y-5395508D01*
X2798277Y-5395508D02*
X2817324Y-5385984D01*
X2817324Y-5385984D02*
X2864943Y-5385984D01*
X2864943Y-5385984D02*
X2883991Y-5395508D01*
X2883991Y-5395508D02*
X2893515Y-5405031D01*
X2893515Y-5405031D02*
X2903039Y-5424079D01*
X2903039Y-5424079D02*
X2903039Y-5443127D01*
X2903039Y-5443127D02*
X2893515Y-5471698D01*
X2893515Y-5471698D02*
X2779229Y-5585984D01*
X2779229Y-5585984D02*
X2903039Y-5585984D01*
X2988753Y-5566936D02*
X2998277Y-5576460D01*
X2998277Y-5576460D02*
X2988753Y-5585984D01*
X2988753Y-5585984D02*
X2979229Y-5576460D01*
X2979229Y-5576460D02*
X2988753Y-5566936D01*
X2988753Y-5566936D02*
X2988753Y-5585984D01*
X3064943Y-5385984D02*
X3198277Y-5385984D01*
X3198277Y-5385984D02*
X3112562Y-5585984D01*
X3312562Y-5385984D02*
X3331610Y-5385984D01*
X3331610Y-5385984D02*
X3350658Y-5395508D01*
X3350658Y-5395508D02*
X3360182Y-5405031D01*
X3360182Y-5405031D02*
X3369705Y-5424079D01*
X3369705Y-5424079D02*
X3379229Y-5462174D01*
X3379229Y-5462174D02*
X3379229Y-5509793D01*
X3379229Y-5509793D02*
X3369705Y-5547889D01*
X3369705Y-5547889D02*
X3360182Y-5566936D01*
X3360182Y-5566936D02*
X3350658Y-5576460D01*
X3350658Y-5576460D02*
X3331610Y-5585984D01*
X3331610Y-5585984D02*
X3312562Y-5585984D01*
X3312562Y-5585984D02*
X3293515Y-5576460D01*
X3293515Y-5576460D02*
X3283991Y-5566936D01*
X3283991Y-5566936D02*
X3274467Y-5547889D01*
X3274467Y-5547889D02*
X3264943Y-5509793D01*
X3264943Y-5509793D02*
X3264943Y-5462174D01*
X3264943Y-5462174D02*
X3274467Y-5424079D01*
X3274467Y-5424079D02*
X3283991Y-5405031D01*
X3283991Y-5405031D02*
X3293515Y-5395508D01*
X3293515Y-5395508D02*
X3312562Y-5385984D01*
X3503039Y-5385984D02*
X3522086Y-5385984D01*
X3522086Y-5385984D02*
X3541134Y-5395508D01*
X3541134Y-5395508D02*
X3550658Y-5405031D01*
X3550658Y-5405031D02*
X3560182Y-5424079D01*
X3560182Y-5424079D02*
X3569705Y-5462174D01*
X3569705Y-5462174D02*
X3569705Y-5509793D01*
X3569705Y-5509793D02*
X3560182Y-5547889D01*
X3560182Y-5547889D02*
X3550658Y-5566936D01*
X3550658Y-5566936D02*
X3541134Y-5576460D01*
X3541134Y-5576460D02*
X3522086Y-5585984D01*
X3522086Y-5585984D02*
X3503039Y-5585984D01*
X3503039Y-5585984D02*
X3483991Y-5576460D01*
X3483991Y-5576460D02*
X3474467Y-5566936D01*
X3474467Y-5566936D02*
X3464943Y-5547889D01*
X3464943Y-5547889D02*
X3455420Y-5509793D01*
X3455420Y-5509793D02*
X3455420Y-5462174D01*
X3455420Y-5462174D02*
X3464943Y-5424079D01*
X3464943Y-5424079D02*
X3474467Y-5405031D01*
X3474467Y-5405031D02*
X3483991Y-5395508D01*
X3483991Y-5395508D02*
X3503039Y-5385984D01*
X3655420Y-5585984D02*
X3655420Y-5452650D01*
X3655420Y-5471698D02*
X3664943Y-5462174D01*
X3664943Y-5462174D02*
X3683991Y-5452650D01*
X3683991Y-5452650D02*
X3712563Y-5452650D01*
X3712563Y-5452650D02*
X3731610Y-5462174D01*
X3731610Y-5462174D02*
X3741134Y-5481222D01*
X3741134Y-5481222D02*
X3741134Y-5585984D01*
X3741134Y-5481222D02*
X3750658Y-5462174D01*
X3750658Y-5462174D02*
X3769705Y-5452650D01*
X3769705Y-5452650D02*
X3798277Y-5452650D01*
X3798277Y-5452650D02*
X3817324Y-5462174D01*
X3817324Y-5462174D02*
X3826848Y-5481222D01*
X3826848Y-5481222D02*
X3826848Y-5585984D01*
X3922086Y-5585984D02*
X3922086Y-5452650D01*
X3922086Y-5471698D02*
X3931610Y-5462174D01*
X3931610Y-5462174D02*
X3950658Y-5452650D01*
X3950658Y-5452650D02*
X3979229Y-5452650D01*
X3979229Y-5452650D02*
X3998277Y-5462174D01*
X3998277Y-5462174D02*
X4007801Y-5481222D01*
X4007801Y-5481222D02*
X4007801Y-5585984D01*
X4007801Y-5481222D02*
X4017324Y-5462174D01*
X4017324Y-5462174D02*
X4036372Y-5452650D01*
X4036372Y-5452650D02*
X4064943Y-5452650D01*
X4064943Y-5452650D02*
X4083991Y-5462174D01*
X4083991Y-5462174D02*
X4093515Y-5481222D01*
X4093515Y-5481222D02*
X4093515Y-5585984D01*
X4483991Y-5376460D02*
X4312563Y-5633603D01*
X4741134Y-5385984D02*
X4760182Y-5385984D01*
X4760182Y-5385984D02*
X4779229Y-5395508D01*
X4779229Y-5395508D02*
X4788753Y-5405031D01*
X4788753Y-5405031D02*
X4798277Y-5424079D01*
X4798277Y-5424079D02*
X4807801Y-5462174D01*
X4807801Y-5462174D02*
X4807801Y-5509793D01*
X4807801Y-5509793D02*
X4798277Y-5547889D01*
X4798277Y-5547889D02*
X4788753Y-5566936D01*
X4788753Y-5566936D02*
X4779229Y-5576460D01*
X4779229Y-5576460D02*
X4760182Y-5585984D01*
X4760182Y-5585984D02*
X4741134Y-5585984D01*
X4741134Y-5585984D02*
X4722087Y-5576460D01*
X4722087Y-5576460D02*
X4712563Y-5566936D01*
X4712563Y-5566936D02*
X4703039Y-5547889D01*
X4703039Y-5547889D02*
X4693515Y-5509793D01*
X4693515Y-5509793D02*
X4693515Y-5462174D01*
X4693515Y-5462174D02*
X4703039Y-5424079D01*
X4703039Y-5424079D02*
X4712563Y-5405031D01*
X4712563Y-5405031D02*
X4722087Y-5395508D01*
X4722087Y-5395508D02*
X4741134Y-5385984D01*
X4893515Y-5566936D02*
X4903039Y-5576460D01*
X4903039Y-5576460D02*
X4893515Y-5585984D01*
X4893515Y-5585984D02*
X4883991Y-5576460D01*
X4883991Y-5576460D02*
X4893515Y-5566936D01*
X4893515Y-5566936D02*
X4893515Y-5585984D01*
X5093515Y-5585984D02*
X4979229Y-5585984D01*
X5036372Y-5585984D02*
X5036372Y-5385984D01*
X5036372Y-5385984D02*
X5017325Y-5414555D01*
X5017325Y-5414555D02*
X4998277Y-5433603D01*
X4998277Y-5433603D02*
X4979229Y-5443127D01*
X5217325Y-5385984D02*
X5236372Y-5385984D01*
X5236372Y-5385984D02*
X5255420Y-5395508D01*
X5255420Y-5395508D02*
X5264944Y-5405031D01*
X5264944Y-5405031D02*
X5274468Y-5424079D01*
X5274468Y-5424079D02*
X5283991Y-5462174D01*
X5283991Y-5462174D02*
X5283991Y-5509793D01*
X5283991Y-5509793D02*
X5274468Y-5547889D01*
X5274468Y-5547889D02*
X5264944Y-5566936D01*
X5264944Y-5566936D02*
X5255420Y-5576460D01*
X5255420Y-5576460D02*
X5236372Y-5585984D01*
X5236372Y-5585984D02*
X5217325Y-5585984D01*
X5217325Y-5585984D02*
X5198277Y-5576460D01*
X5198277Y-5576460D02*
X5188753Y-5566936D01*
X5188753Y-5566936D02*
X5179229Y-5547889D01*
X5179229Y-5547889D02*
X5169706Y-5509793D01*
X5169706Y-5509793D02*
X5169706Y-5462174D01*
X5169706Y-5462174D02*
X5179229Y-5424079D01*
X5179229Y-5424079D02*
X5188753Y-5405031D01*
X5188753Y-5405031D02*
X5198277Y-5395508D01*
X5198277Y-5395508D02*
X5217325Y-5385984D01*
X5455420Y-5385984D02*
X5417325Y-5385984D01*
X5417325Y-5385984D02*
X5398277Y-5395508D01*
X5398277Y-5395508D02*
X5388753Y-5405031D01*
X5388753Y-5405031D02*
X5369706Y-5433603D01*
X5369706Y-5433603D02*
X5360182Y-5471698D01*
X5360182Y-5471698D02*
X5360182Y-5547889D01*
X5360182Y-5547889D02*
X5369706Y-5566936D01*
X5369706Y-5566936D02*
X5379229Y-5576460D01*
X5379229Y-5576460D02*
X5398277Y-5585984D01*
X5398277Y-5585984D02*
X5436372Y-5585984D01*
X5436372Y-5585984D02*
X5455420Y-5576460D01*
X5455420Y-5576460D02*
X5464944Y-5566936D01*
X5464944Y-5566936D02*
X5474468Y-5547889D01*
X5474468Y-5547889D02*
X5474468Y-5500270D01*
X5474468Y-5500270D02*
X5464944Y-5481222D01*
X5464944Y-5481222D02*
X5455420Y-5471698D01*
X5455420Y-5471698D02*
X5436372Y-5462174D01*
X5436372Y-5462174D02*
X5398277Y-5462174D01*
X5398277Y-5462174D02*
X5379229Y-5471698D01*
X5379229Y-5471698D02*
X5369706Y-5481222D01*
X5369706Y-5481222D02*
X5360182Y-5500270D01*
X5541134Y-5385984D02*
X5664944Y-5385984D01*
X5664944Y-5385984D02*
X5598277Y-5462174D01*
X5598277Y-5462174D02*
X5626848Y-5462174D01*
X5626848Y-5462174D02*
X5645896Y-5471698D01*
X5645896Y-5471698D02*
X5655420Y-5481222D01*
X5655420Y-5481222D02*
X5664944Y-5500270D01*
X5664944Y-5500270D02*
X5664944Y-5547889D01*
X5664944Y-5547889D02*
X5655420Y-5566936D01*
X5655420Y-5566936D02*
X5645896Y-5576460D01*
X5645896Y-5576460D02*
X5626848Y-5585984D01*
X5626848Y-5585984D02*
X5569706Y-5585984D01*
X5569706Y-5585984D02*
X5550658Y-5576460D01*
X5550658Y-5576460D02*
X5541134Y-5566936D01*
X5741134Y-5385984D02*
X5741134Y-5424079D01*
X5817325Y-5385984D02*
X5817325Y-5424079D01*
X6112563Y-5662174D02*
X6103039Y-5652650D01*
X6103039Y-5652650D02*
X6083991Y-5624079D01*
X6083991Y-5624079D02*
X6074468Y-5605031D01*
X6074468Y-5605031D02*
X6064944Y-5576460D01*
X6064944Y-5576460D02*
X6055420Y-5528841D01*
X6055420Y-5528841D02*
X6055420Y-5490746D01*
X6055420Y-5490746D02*
X6064944Y-5443127D01*
X6064944Y-5443127D02*
X6074468Y-5414555D01*
X6074468Y-5414555D02*
X6083991Y-5395508D01*
X6083991Y-5395508D02*
X6103039Y-5366936D01*
X6103039Y-5366936D02*
X6112563Y-5357412D01*
X6274468Y-5452650D02*
X6274468Y-5585984D01*
X6226848Y-5376460D02*
X6179229Y-5519317D01*
X6179229Y-5519317D02*
X6303039Y-5519317D01*
X6531610Y-5585984D02*
X6531610Y-5385984D01*
X6617325Y-5585984D02*
X6617325Y-5481222D01*
X6617325Y-5481222D02*
X6607801Y-5462174D01*
X6607801Y-5462174D02*
X6588753Y-5452650D01*
X6588753Y-5452650D02*
X6560182Y-5452650D01*
X6560182Y-5452650D02*
X6541134Y-5462174D01*
X6541134Y-5462174D02*
X6531610Y-5471698D01*
X6741134Y-5585984D02*
X6722087Y-5576460D01*
X6722087Y-5576460D02*
X6712563Y-5566936D01*
X6712563Y-5566936D02*
X6703039Y-5547889D01*
X6703039Y-5547889D02*
X6703039Y-5490746D01*
X6703039Y-5490746D02*
X6712563Y-5471698D01*
X6712563Y-5471698D02*
X6722087Y-5462174D01*
X6722087Y-5462174D02*
X6741134Y-5452650D01*
X6741134Y-5452650D02*
X6769706Y-5452650D01*
X6769706Y-5452650D02*
X6788753Y-5462174D01*
X6788753Y-5462174D02*
X6798277Y-5471698D01*
X6798277Y-5471698D02*
X6807801Y-5490746D01*
X6807801Y-5490746D02*
X6807801Y-5547889D01*
X6807801Y-5547889D02*
X6798277Y-5566936D01*
X6798277Y-5566936D02*
X6788753Y-5576460D01*
X6788753Y-5576460D02*
X6769706Y-5585984D01*
X6769706Y-5585984D02*
X6741134Y-5585984D01*
X6922087Y-5585984D02*
X6903039Y-5576460D01*
X6903039Y-5576460D02*
X6893515Y-5557412D01*
X6893515Y-5557412D02*
X6893515Y-5385984D01*
X7074468Y-5576460D02*
X7055420Y-5585984D01*
X7055420Y-5585984D02*
X7017325Y-5585984D01*
X7017325Y-5585984D02*
X6998277Y-5576460D01*
X6998277Y-5576460D02*
X6988753Y-5557412D01*
X6988753Y-5557412D02*
X6988753Y-5481222D01*
X6988753Y-5481222D02*
X6998277Y-5462174D01*
X6998277Y-5462174D02*
X7017325Y-5452650D01*
X7017325Y-5452650D02*
X7055420Y-5452650D01*
X7055420Y-5452650D02*
X7074468Y-5462174D01*
X7074468Y-5462174D02*
X7083991Y-5481222D01*
X7083991Y-5481222D02*
X7083991Y-5500270D01*
X7083991Y-5500270D02*
X6988753Y-5519317D01*
X7160182Y-5576460D02*
X7179230Y-5585984D01*
X7179230Y-5585984D02*
X7217325Y-5585984D01*
X7217325Y-5585984D02*
X7236372Y-5576460D01*
X7236372Y-5576460D02*
X7245896Y-5557412D01*
X7245896Y-5557412D02*
X7245896Y-5547889D01*
X7245896Y-5547889D02*
X7236372Y-5528841D01*
X7236372Y-5528841D02*
X7217325Y-5519317D01*
X7217325Y-5519317D02*
X7188753Y-5519317D01*
X7188753Y-5519317D02*
X7169706Y-5509793D01*
X7169706Y-5509793D02*
X7160182Y-5490746D01*
X7160182Y-5490746D02*
X7160182Y-5481222D01*
X7160182Y-5481222D02*
X7169706Y-5462174D01*
X7169706Y-5462174D02*
X7188753Y-5452650D01*
X7188753Y-5452650D02*
X7217325Y-5452650D01*
X7217325Y-5452650D02*
X7236372Y-5462174D01*
X7312563Y-5662174D02*
X7322087Y-5652650D01*
X7322087Y-5652650D02*
X7341134Y-5624079D01*
X7341134Y-5624079D02*
X7350658Y-5605031D01*
X7350658Y-5605031D02*
X7360182Y-5576460D01*
X7360182Y-5576460D02*
X7369706Y-5528841D01*
X7369706Y-5528841D02*
X7369706Y-5490746D01*
X7369706Y-5490746D02*
X7360182Y-5443127D01*
X7360182Y-5443127D02*
X7350658Y-5414555D01*
X7350658Y-5414555D02*
X7341134Y-5395508D01*
X7341134Y-5395508D02*
X7322087Y-5366936D01*
X7322087Y-5366936D02*
X7312563Y-5357412D01*
X7674468Y-5662174D02*
X7664944Y-5652650D01*
X7664944Y-5652650D02*
X7645896Y-5624079D01*
X7645896Y-5624079D02*
X7636372Y-5605031D01*
X7636372Y-5605031D02*
X7626849Y-5576460D01*
X7626849Y-5576460D02*
X7617325Y-5528841D01*
X7617325Y-5528841D02*
X7617325Y-5490746D01*
X7617325Y-5490746D02*
X7626849Y-5443127D01*
X7626849Y-5443127D02*
X7636372Y-5414555D01*
X7636372Y-5414555D02*
X7645896Y-5395508D01*
X7645896Y-5395508D02*
X7664944Y-5366936D01*
X7664944Y-5366936D02*
X7674468Y-5357412D01*
X7750658Y-5452650D02*
X7750658Y-5585984D01*
X7750658Y-5471698D02*
X7760182Y-5462174D01*
X7760182Y-5462174D02*
X7779230Y-5452650D01*
X7779230Y-5452650D02*
X7807801Y-5452650D01*
X7807801Y-5452650D02*
X7826849Y-5462174D01*
X7826849Y-5462174D02*
X7836372Y-5481222D01*
X7836372Y-5481222D02*
X7836372Y-5585984D01*
X7960182Y-5585984D02*
X7941134Y-5576460D01*
X7941134Y-5576460D02*
X7931611Y-5566936D01*
X7931611Y-5566936D02*
X7922087Y-5547889D01*
X7922087Y-5547889D02*
X7922087Y-5490746D01*
X7922087Y-5490746D02*
X7931611Y-5471698D01*
X7931611Y-5471698D02*
X7941134Y-5462174D01*
X7941134Y-5462174D02*
X7960182Y-5452650D01*
X7960182Y-5452650D02*
X7988753Y-5452650D01*
X7988753Y-5452650D02*
X8007801Y-5462174D01*
X8007801Y-5462174D02*
X8017325Y-5471698D01*
X8017325Y-5471698D02*
X8026849Y-5490746D01*
X8026849Y-5490746D02*
X8026849Y-5547889D01*
X8026849Y-5547889D02*
X8017325Y-5566936D01*
X8017325Y-5566936D02*
X8007801Y-5576460D01*
X8007801Y-5576460D02*
X7988753Y-5585984D01*
X7988753Y-5585984D02*
X7960182Y-5585984D01*
X8083992Y-5452650D02*
X8160182Y-5452650D01*
X8112563Y-5385984D02*
X8112563Y-5557412D01*
X8112563Y-5557412D02*
X8122087Y-5576460D01*
X8122087Y-5576460D02*
X8141134Y-5585984D01*
X8141134Y-5585984D02*
X8160182Y-5585984D01*
X8379230Y-5452650D02*
X8379230Y-5652650D01*
X8379230Y-5462174D02*
X8398277Y-5452650D01*
X8398277Y-5452650D02*
X8436373Y-5452650D01*
X8436373Y-5452650D02*
X8455420Y-5462174D01*
X8455420Y-5462174D02*
X8464944Y-5471698D01*
X8464944Y-5471698D02*
X8474468Y-5490746D01*
X8474468Y-5490746D02*
X8474468Y-5547889D01*
X8474468Y-5547889D02*
X8464944Y-5566936D01*
X8464944Y-5566936D02*
X8455420Y-5576460D01*
X8455420Y-5576460D02*
X8436373Y-5585984D01*
X8436373Y-5585984D02*
X8398277Y-5585984D01*
X8398277Y-5585984D02*
X8379230Y-5576460D01*
X8588754Y-5585984D02*
X8569706Y-5576460D01*
X8569706Y-5576460D02*
X8560182Y-5557412D01*
X8560182Y-5557412D02*
X8560182Y-5385984D01*
X8750658Y-5585984D02*
X8750658Y-5481222D01*
X8750658Y-5481222D02*
X8741135Y-5462174D01*
X8741135Y-5462174D02*
X8722087Y-5452650D01*
X8722087Y-5452650D02*
X8683992Y-5452650D01*
X8683992Y-5452650D02*
X8664944Y-5462174D01*
X8750658Y-5576460D02*
X8731611Y-5585984D01*
X8731611Y-5585984D02*
X8683992Y-5585984D01*
X8683992Y-5585984D02*
X8664944Y-5576460D01*
X8664944Y-5576460D02*
X8655420Y-5557412D01*
X8655420Y-5557412D02*
X8655420Y-5538365D01*
X8655420Y-5538365D02*
X8664944Y-5519317D01*
X8664944Y-5519317D02*
X8683992Y-5509793D01*
X8683992Y-5509793D02*
X8731611Y-5509793D01*
X8731611Y-5509793D02*
X8750658Y-5500270D01*
X8817325Y-5452650D02*
X8893515Y-5452650D01*
X8845896Y-5385984D02*
X8845896Y-5557412D01*
X8845896Y-5557412D02*
X8855420Y-5576460D01*
X8855420Y-5576460D02*
X8874468Y-5585984D01*
X8874468Y-5585984D02*
X8893515Y-5585984D01*
X9036373Y-5576460D02*
X9017325Y-5585984D01*
X9017325Y-5585984D02*
X8979230Y-5585984D01*
X8979230Y-5585984D02*
X8960182Y-5576460D01*
X8960182Y-5576460D02*
X8950658Y-5557412D01*
X8950658Y-5557412D02*
X8950658Y-5481222D01*
X8950658Y-5481222D02*
X8960182Y-5462174D01*
X8960182Y-5462174D02*
X8979230Y-5452650D01*
X8979230Y-5452650D02*
X9017325Y-5452650D01*
X9017325Y-5452650D02*
X9036373Y-5462174D01*
X9036373Y-5462174D02*
X9045896Y-5481222D01*
X9045896Y-5481222D02*
X9045896Y-5500270D01*
X9045896Y-5500270D02*
X8950658Y-5519317D01*
X9217325Y-5585984D02*
X9217325Y-5385984D01*
X9217325Y-5576460D02*
X9198277Y-5585984D01*
X9198277Y-5585984D02*
X9160182Y-5585984D01*
X9160182Y-5585984D02*
X9141135Y-5576460D01*
X9141135Y-5576460D02*
X9131611Y-5566936D01*
X9131611Y-5566936D02*
X9122087Y-5547889D01*
X9122087Y-5547889D02*
X9122087Y-5490746D01*
X9122087Y-5490746D02*
X9131611Y-5471698D01*
X9131611Y-5471698D02*
X9141135Y-5462174D01*
X9141135Y-5462174D02*
X9160182Y-5452650D01*
X9160182Y-5452650D02*
X9198277Y-5452650D01*
X9198277Y-5452650D02*
X9217325Y-5462174D01*
X9293516Y-5662174D02*
X9303039Y-5652650D01*
X9303039Y-5652650D02*
X9322087Y-5624079D01*
X9322087Y-5624079D02*
X9331611Y-5605031D01*
X9331611Y-5605031D02*
X9341135Y-5576460D01*
X9341135Y-5576460D02*
X9350658Y-5528841D01*
X9350658Y-5528841D02*
X9350658Y-5490746D01*
X9350658Y-5490746D02*
X9341135Y-5443127D01*
X9341135Y-5443127D02*
X9331611Y-5414555D01*
X9331611Y-5414555D02*
X9322087Y-5395508D01*
X9322087Y-5395508D02*
X9303039Y-5366936D01*
X9303039Y-5366936D02*
X9293516Y-5357412D01*
M02*
