M48
; DRILL file {KiCad 8.0.4} date 2024-09-07T16:21:25-0700
; FORMAT={-:-/ absolute / inch / decimal}
; #@! TF.CreationDate,2024-09-07T16:21:25-07:00
; #@! TF.GenerationSoftware,Kicad,Pcbnew,8.0.4
; #@! TF.FileFunction,Plated,1,2,PTH
FMAT,2
INCH
; #@! TA.AperFunction,Plated,PTH,ViaDrill
T1C0.0118
; #@! TA.AperFunction,Plated,PTH,ComponentDrill
T2C0.0394
%
G90
G05
T1
X1.103Y-1.249
X1.11Y-1.44
X1.11Y-1.49
X1.1368Y-1.2432
X1.276Y-1.345
X1.31Y-1.39
X1.325Y-1.678
X1.331Y-1.573
X1.38Y-1.6767
X1.482Y-1.612
X1.482Y-1.641
X1.542Y-1.76
X1.601Y-1.549
X1.85Y-1.4256
X1.8779Y-1.2706
X1.88Y-1.4256
X1.888Y-1.611
X1.89Y-1.76
X1.91Y-1.4256
X1.936Y-1.274
X1.94Y-1.4256
X1.965Y-1.195
X1.965Y-1.23
X2.0Y-1.195
X2.0Y-1.23
X2.011Y-1.556
X2.039Y-1.395
T2
X1.276Y-1.16
X1.276Y-1.26
T2
G00X1.4078Y-1.2339
M15
G01X1.4078Y-1.1749
M16
G05
G00X1.6106Y-1.2438
M15
G01X1.5594Y-1.2438
M16
G05
G00X1.6244Y-1.48
M15
G01X1.5456Y-1.48
M16
G05
G00X1.7622Y-1.2339
M15
G01X1.7622Y-1.1749
M16
G05
M30
