%TF.GenerationSoftware,KiCad,Pcbnew,8.0.4*%
%TF.CreationDate,2024-09-07T16:21:25-07:00*%
%TF.ProjectId,upiez,75706965-7a2e-46b6-9963-61645f706362,rev?*%
%TF.SameCoordinates,Original*%
%TF.FileFunction,Drillmap*%
%TF.FilePolarity,Positive*%
%FSLAX45Y45*%
G04 Gerber Fmt 4.5, Leading zero omitted, Abs format (unit mm)*
G04 Created by KiCad (PCBNEW 8.0.4) date 2024-09-07 16:21:25*
%MOMM*%
%LPD*%
G01*
G04 APERTURE LIST*
%ADD10C,0.050000*%
%ADD11C,0.200000*%
%ADD12C,0.100000*%
G04 APERTURE END LIST*
D10*
X5359400Y-4445000D02*
G75*
G02*
X5232400Y-4572000I-127000J0D01*
G01*
X2540000Y-2971800D02*
X2540000Y-2667000D01*
X5232400Y-2540000D02*
G75*
G02*
X5359400Y-2667000I0J-127000D01*
G01*
X2540000Y-4445000D02*
X2540000Y-2971800D01*
X2667000Y-4572000D02*
G75*
G02*
X2540000Y-4445000I0J127000D01*
G01*
X2667000Y-2540000D02*
X5232400Y-2540000D01*
X2540000Y-2667000D02*
G75*
G02*
X2667000Y-2540000I127000J0D01*
G01*
X5359400Y-2667000D02*
X5359400Y-4445000D01*
X5232400Y-4572000D02*
X2667000Y-4572000D01*
D11*
D12*
X2786620Y-3157460D02*
X2816620Y-3187460D01*
X2816620Y-3157460D02*
X2786620Y-3187460D01*
X2804400Y-3642600D02*
X2834400Y-3672600D01*
X2834400Y-3642600D02*
X2804400Y-3672600D01*
X2804400Y-3769600D02*
X2834400Y-3799600D01*
X2834400Y-3769600D02*
X2804400Y-3799600D01*
X2872430Y-3142770D02*
X2902430Y-3172770D01*
X2902430Y-3142770D02*
X2872430Y-3172770D01*
X3226040Y-3401300D02*
X3256040Y-3431300D01*
X3256040Y-3401300D02*
X3226040Y-3431300D01*
X3312400Y-3515600D02*
X3342400Y-3545600D01*
X3342400Y-3515600D02*
X3312400Y-3545600D01*
X3350500Y-4247120D02*
X3380500Y-4277120D01*
X3380500Y-4247120D02*
X3350500Y-4277120D01*
X3365740Y-3980420D02*
X3395740Y-4010420D01*
X3395740Y-3980420D02*
X3365740Y-4010420D01*
X3490200Y-4243780D02*
X3520200Y-4273780D01*
X3520200Y-4243780D02*
X3490200Y-4273780D01*
X3749280Y-4079480D02*
X3779280Y-4109480D01*
X3779280Y-4079480D02*
X3749280Y-4109480D01*
X3749280Y-4153140D02*
X3779280Y-4183140D01*
X3779280Y-4153140D02*
X3749280Y-4183140D01*
X3901680Y-4455400D02*
X3931680Y-4485400D01*
X3931680Y-4455400D02*
X3901680Y-4485400D01*
X4051540Y-3919460D02*
X4081540Y-3949460D01*
X4081540Y-3919460D02*
X4051540Y-3949460D01*
X4684000Y-3606020D02*
X4714000Y-3636020D01*
X4714000Y-3606020D02*
X4684000Y-3636020D01*
X4754860Y-3212320D02*
X4784860Y-3242320D01*
X4784860Y-3212320D02*
X4754860Y-3242320D01*
X4760200Y-3606020D02*
X4790200Y-3636020D01*
X4790200Y-3606020D02*
X4760200Y-3636020D01*
X4780520Y-4076940D02*
X4810520Y-4106940D01*
X4810520Y-4076940D02*
X4780520Y-4106940D01*
X4785600Y-4455400D02*
X4815600Y-4485400D01*
X4815600Y-4455400D02*
X4785600Y-4485400D01*
X4836400Y-3606020D02*
X4866400Y-3636020D01*
X4866400Y-3606020D02*
X4836400Y-3636020D01*
X4902440Y-3220960D02*
X4932440Y-3250960D01*
X4932440Y-3220960D02*
X4902440Y-3250960D01*
X4912600Y-3606020D02*
X4942600Y-3636020D01*
X4942600Y-3606020D02*
X4912600Y-3636020D01*
X4976100Y-3020300D02*
X5006100Y-3050300D01*
X5006100Y-3020300D02*
X4976100Y-3050300D01*
X4976100Y-3109200D02*
X5006100Y-3139200D01*
X5006100Y-3109200D02*
X4976100Y-3139200D01*
X5065000Y-3020300D02*
X5095000Y-3050300D01*
X5095000Y-3020300D02*
X5065000Y-3050300D01*
X5065000Y-3109200D02*
X5095000Y-3139200D01*
X5095000Y-3109200D02*
X5065000Y-3139200D01*
X5092940Y-3937240D02*
X5122940Y-3967240D01*
X5122940Y-3937240D02*
X5092940Y-3967240D01*
X5164060Y-3528300D02*
X5194060Y-3558300D01*
X5194060Y-3528300D02*
X5164060Y-3558300D01*
X3291040Y-2946400D02*
G75*
G02*
X3191040Y-2946400I-50000J0D01*
G01*
X3191040Y-2946400D02*
G75*
G02*
X3291040Y-2946400I50000J0D01*
G01*
X3291040Y-3200400D02*
G75*
G02*
X3191040Y-3200400I-50000J0D01*
G01*
X3191040Y-3200400D02*
G75*
G02*
X3291040Y-3200400I50000J0D01*
G01*
X3625900Y-3059200D02*
G75*
G02*
X3525900Y-3059200I-50000J0D01*
G01*
X3525900Y-3059200D02*
G75*
G02*
X3625900Y-3059200I50000J0D01*
G01*
X3625900Y-3134200D02*
X3625900Y-2984200D01*
X3525900Y-2984200D02*
G75*
G02*
X3625900Y-2984200I50000J0D01*
G01*
X3525900Y-2984200D02*
X3525900Y-3134200D01*
X3525900Y-3134200D02*
G75*
G03*
X3625900Y-3134200I50000J0D01*
G01*
X4075900Y-3159200D02*
G75*
G02*
X3975900Y-3159200I-50000J0D01*
G01*
X3975900Y-3159200D02*
G75*
G02*
X4075900Y-3159200I50000J0D01*
G01*
X4090900Y-3109200D02*
X3960900Y-3109200D01*
X3960900Y-3209200D02*
G75*
G02*
X3960900Y-3109200I0J50000D01*
G01*
X3960900Y-3209200D02*
X4090900Y-3209200D01*
X4090900Y-3209200D02*
G75*
G03*
X4090900Y-3109200I0J50000D01*
G01*
X4075900Y-3759200D02*
G75*
G02*
X3975900Y-3759200I-50000J0D01*
G01*
X3975900Y-3759200D02*
G75*
G02*
X4075900Y-3759200I50000J0D01*
G01*
X4125900Y-3709200D02*
X3925900Y-3709200D01*
X3925900Y-3809200D02*
G75*
G02*
X3925900Y-3709200I0J50000D01*
G01*
X3925900Y-3809200D02*
X4125900Y-3809200D01*
X4125900Y-3809200D02*
G75*
G03*
X4125900Y-3709200I0J50000D01*
G01*
X4525900Y-3059200D02*
G75*
G02*
X4425900Y-3059200I-50000J0D01*
G01*
X4425900Y-3059200D02*
G75*
G02*
X4525900Y-3059200I50000J0D01*
G01*
X4525900Y-3134200D02*
X4525900Y-2984200D01*
X4425900Y-2984200D02*
G75*
G02*
X4525900Y-2984200I50000J0D01*
G01*
X4425900Y-2984200D02*
X4425900Y-3134200D01*
X4425900Y-3134200D02*
G75*
G03*
X4525900Y-3134200I50000J0D01*
G01*
D11*
X2798277Y-4885984D02*
X2798277Y-4685984D01*
X2798277Y-4685984D02*
X2845896Y-4685984D01*
X2845896Y-4685984D02*
X2874467Y-4695508D01*
X2874467Y-4695508D02*
X2893515Y-4714555D01*
X2893515Y-4714555D02*
X2903039Y-4733603D01*
X2903039Y-4733603D02*
X2912562Y-4771698D01*
X2912562Y-4771698D02*
X2912562Y-4800270D01*
X2912562Y-4800270D02*
X2903039Y-4838365D01*
X2903039Y-4838365D02*
X2893515Y-4857412D01*
X2893515Y-4857412D02*
X2874467Y-4876460D01*
X2874467Y-4876460D02*
X2845896Y-4885984D01*
X2845896Y-4885984D02*
X2798277Y-4885984D01*
X2998277Y-4885984D02*
X2998277Y-4752650D01*
X2998277Y-4790746D02*
X3007801Y-4771698D01*
X3007801Y-4771698D02*
X3017324Y-4762174D01*
X3017324Y-4762174D02*
X3036372Y-4752650D01*
X3036372Y-4752650D02*
X3055420Y-4752650D01*
X3122086Y-4885984D02*
X3122086Y-4752650D01*
X3122086Y-4685984D02*
X3112562Y-4695508D01*
X3112562Y-4695508D02*
X3122086Y-4705031D01*
X3122086Y-4705031D02*
X3131610Y-4695508D01*
X3131610Y-4695508D02*
X3122086Y-4685984D01*
X3122086Y-4685984D02*
X3122086Y-4705031D01*
X3245896Y-4885984D02*
X3226848Y-4876460D01*
X3226848Y-4876460D02*
X3217324Y-4857412D01*
X3217324Y-4857412D02*
X3217324Y-4685984D01*
X3350658Y-4885984D02*
X3331610Y-4876460D01*
X3331610Y-4876460D02*
X3322086Y-4857412D01*
X3322086Y-4857412D02*
X3322086Y-4685984D01*
X3579229Y-4885984D02*
X3579229Y-4685984D01*
X3579229Y-4685984D02*
X3645896Y-4828841D01*
X3645896Y-4828841D02*
X3712562Y-4685984D01*
X3712562Y-4685984D02*
X3712562Y-4885984D01*
X3893515Y-4885984D02*
X3893515Y-4781222D01*
X3893515Y-4781222D02*
X3883991Y-4762174D01*
X3883991Y-4762174D02*
X3864943Y-4752650D01*
X3864943Y-4752650D02*
X3826848Y-4752650D01*
X3826848Y-4752650D02*
X3807801Y-4762174D01*
X3893515Y-4876460D02*
X3874467Y-4885984D01*
X3874467Y-4885984D02*
X3826848Y-4885984D01*
X3826848Y-4885984D02*
X3807801Y-4876460D01*
X3807801Y-4876460D02*
X3798277Y-4857412D01*
X3798277Y-4857412D02*
X3798277Y-4838365D01*
X3798277Y-4838365D02*
X3807801Y-4819317D01*
X3807801Y-4819317D02*
X3826848Y-4809793D01*
X3826848Y-4809793D02*
X3874467Y-4809793D01*
X3874467Y-4809793D02*
X3893515Y-4800270D01*
X3988753Y-4752650D02*
X3988753Y-4952650D01*
X3988753Y-4762174D02*
X4007801Y-4752650D01*
X4007801Y-4752650D02*
X4045896Y-4752650D01*
X4045896Y-4752650D02*
X4064943Y-4762174D01*
X4064943Y-4762174D02*
X4074467Y-4771698D01*
X4074467Y-4771698D02*
X4083991Y-4790746D01*
X4083991Y-4790746D02*
X4083991Y-4847889D01*
X4083991Y-4847889D02*
X4074467Y-4866936D01*
X4074467Y-4866936D02*
X4064943Y-4876460D01*
X4064943Y-4876460D02*
X4045896Y-4885984D01*
X4045896Y-4885984D02*
X4007801Y-4885984D01*
X4007801Y-4885984D02*
X3988753Y-4876460D01*
X4169705Y-4866936D02*
X4179229Y-4876460D01*
X4179229Y-4876460D02*
X4169705Y-4885984D01*
X4169705Y-4885984D02*
X4160182Y-4876460D01*
X4160182Y-4876460D02*
X4169705Y-4866936D01*
X4169705Y-4866936D02*
X4169705Y-4885984D01*
X4169705Y-4762174D02*
X4179229Y-4771698D01*
X4179229Y-4771698D02*
X4169705Y-4781222D01*
X4169705Y-4781222D02*
X4160182Y-4771698D01*
X4160182Y-4771698D02*
X4169705Y-4762174D01*
X4169705Y-4762174D02*
X4169705Y-4781222D01*
D12*
X2507500Y-5199500D02*
X2537500Y-5229500D01*
X2537500Y-5199500D02*
X2507500Y-5229500D01*
D11*
X2836372Y-5105984D02*
X2855420Y-5105984D01*
X2855420Y-5105984D02*
X2874467Y-5115508D01*
X2874467Y-5115508D02*
X2883991Y-5125031D01*
X2883991Y-5125031D02*
X2893515Y-5144079D01*
X2893515Y-5144079D02*
X2903039Y-5182174D01*
X2903039Y-5182174D02*
X2903039Y-5229793D01*
X2903039Y-5229793D02*
X2893515Y-5267889D01*
X2893515Y-5267889D02*
X2883991Y-5286936D01*
X2883991Y-5286936D02*
X2874467Y-5296460D01*
X2874467Y-5296460D02*
X2855420Y-5305984D01*
X2855420Y-5305984D02*
X2836372Y-5305984D01*
X2836372Y-5305984D02*
X2817324Y-5296460D01*
X2817324Y-5296460D02*
X2807801Y-5286936D01*
X2807801Y-5286936D02*
X2798277Y-5267889D01*
X2798277Y-5267889D02*
X2788753Y-5229793D01*
X2788753Y-5229793D02*
X2788753Y-5182174D01*
X2788753Y-5182174D02*
X2798277Y-5144079D01*
X2798277Y-5144079D02*
X2807801Y-5125031D01*
X2807801Y-5125031D02*
X2817324Y-5115508D01*
X2817324Y-5115508D02*
X2836372Y-5105984D01*
X2988753Y-5286936D02*
X2998277Y-5296460D01*
X2998277Y-5296460D02*
X2988753Y-5305984D01*
X2988753Y-5305984D02*
X2979229Y-5296460D01*
X2979229Y-5296460D02*
X2988753Y-5286936D01*
X2988753Y-5286936D02*
X2988753Y-5305984D01*
X3064943Y-5105984D02*
X3188753Y-5105984D01*
X3188753Y-5105984D02*
X3122086Y-5182174D01*
X3122086Y-5182174D02*
X3150658Y-5182174D01*
X3150658Y-5182174D02*
X3169705Y-5191698D01*
X3169705Y-5191698D02*
X3179229Y-5201222D01*
X3179229Y-5201222D02*
X3188753Y-5220270D01*
X3188753Y-5220270D02*
X3188753Y-5267889D01*
X3188753Y-5267889D02*
X3179229Y-5286936D01*
X3179229Y-5286936D02*
X3169705Y-5296460D01*
X3169705Y-5296460D02*
X3150658Y-5305984D01*
X3150658Y-5305984D02*
X3093515Y-5305984D01*
X3093515Y-5305984D02*
X3074467Y-5296460D01*
X3074467Y-5296460D02*
X3064943Y-5286936D01*
X3312562Y-5105984D02*
X3331610Y-5105984D01*
X3331610Y-5105984D02*
X3350658Y-5115508D01*
X3350658Y-5115508D02*
X3360182Y-5125031D01*
X3360182Y-5125031D02*
X3369705Y-5144079D01*
X3369705Y-5144079D02*
X3379229Y-5182174D01*
X3379229Y-5182174D02*
X3379229Y-5229793D01*
X3379229Y-5229793D02*
X3369705Y-5267889D01*
X3369705Y-5267889D02*
X3360182Y-5286936D01*
X3360182Y-5286936D02*
X3350658Y-5296460D01*
X3350658Y-5296460D02*
X3331610Y-5305984D01*
X3331610Y-5305984D02*
X3312562Y-5305984D01*
X3312562Y-5305984D02*
X3293515Y-5296460D01*
X3293515Y-5296460D02*
X3283991Y-5286936D01*
X3283991Y-5286936D02*
X3274467Y-5267889D01*
X3274467Y-5267889D02*
X3264943Y-5229793D01*
X3264943Y-5229793D02*
X3264943Y-5182174D01*
X3264943Y-5182174D02*
X3274467Y-5144079D01*
X3274467Y-5144079D02*
X3283991Y-5125031D01*
X3283991Y-5125031D02*
X3293515Y-5115508D01*
X3293515Y-5115508D02*
X3312562Y-5105984D01*
X3503039Y-5105984D02*
X3522086Y-5105984D01*
X3522086Y-5105984D02*
X3541134Y-5115508D01*
X3541134Y-5115508D02*
X3550658Y-5125031D01*
X3550658Y-5125031D02*
X3560182Y-5144079D01*
X3560182Y-5144079D02*
X3569705Y-5182174D01*
X3569705Y-5182174D02*
X3569705Y-5229793D01*
X3569705Y-5229793D02*
X3560182Y-5267889D01*
X3560182Y-5267889D02*
X3550658Y-5286936D01*
X3550658Y-5286936D02*
X3541134Y-5296460D01*
X3541134Y-5296460D02*
X3522086Y-5305984D01*
X3522086Y-5305984D02*
X3503039Y-5305984D01*
X3503039Y-5305984D02*
X3483991Y-5296460D01*
X3483991Y-5296460D02*
X3474467Y-5286936D01*
X3474467Y-5286936D02*
X3464943Y-5267889D01*
X3464943Y-5267889D02*
X3455420Y-5229793D01*
X3455420Y-5229793D02*
X3455420Y-5182174D01*
X3455420Y-5182174D02*
X3464943Y-5144079D01*
X3464943Y-5144079D02*
X3474467Y-5125031D01*
X3474467Y-5125031D02*
X3483991Y-5115508D01*
X3483991Y-5115508D02*
X3503039Y-5105984D01*
X3655420Y-5305984D02*
X3655420Y-5172650D01*
X3655420Y-5191698D02*
X3664943Y-5182174D01*
X3664943Y-5182174D02*
X3683991Y-5172650D01*
X3683991Y-5172650D02*
X3712563Y-5172650D01*
X3712563Y-5172650D02*
X3731610Y-5182174D01*
X3731610Y-5182174D02*
X3741134Y-5201222D01*
X3741134Y-5201222D02*
X3741134Y-5305984D01*
X3741134Y-5201222D02*
X3750658Y-5182174D01*
X3750658Y-5182174D02*
X3769705Y-5172650D01*
X3769705Y-5172650D02*
X3798277Y-5172650D01*
X3798277Y-5172650D02*
X3817324Y-5182174D01*
X3817324Y-5182174D02*
X3826848Y-5201222D01*
X3826848Y-5201222D02*
X3826848Y-5305984D01*
X3922086Y-5305984D02*
X3922086Y-5172650D01*
X3922086Y-5191698D02*
X3931610Y-5182174D01*
X3931610Y-5182174D02*
X3950658Y-5172650D01*
X3950658Y-5172650D02*
X3979229Y-5172650D01*
X3979229Y-5172650D02*
X3998277Y-5182174D01*
X3998277Y-5182174D02*
X4007801Y-5201222D01*
X4007801Y-5201222D02*
X4007801Y-5305984D01*
X4007801Y-5201222D02*
X4017324Y-5182174D01*
X4017324Y-5182174D02*
X4036372Y-5172650D01*
X4036372Y-5172650D02*
X4064943Y-5172650D01*
X4064943Y-5172650D02*
X4083991Y-5182174D01*
X4083991Y-5182174D02*
X4093515Y-5201222D01*
X4093515Y-5201222D02*
X4093515Y-5305984D01*
X4483991Y-5096460D02*
X4312563Y-5353603D01*
X4741134Y-5105984D02*
X4760182Y-5105984D01*
X4760182Y-5105984D02*
X4779229Y-5115508D01*
X4779229Y-5115508D02*
X4788753Y-5125031D01*
X4788753Y-5125031D02*
X4798277Y-5144079D01*
X4798277Y-5144079D02*
X4807801Y-5182174D01*
X4807801Y-5182174D02*
X4807801Y-5229793D01*
X4807801Y-5229793D02*
X4798277Y-5267889D01*
X4798277Y-5267889D02*
X4788753Y-5286936D01*
X4788753Y-5286936D02*
X4779229Y-5296460D01*
X4779229Y-5296460D02*
X4760182Y-5305984D01*
X4760182Y-5305984D02*
X4741134Y-5305984D01*
X4741134Y-5305984D02*
X4722087Y-5296460D01*
X4722087Y-5296460D02*
X4712563Y-5286936D01*
X4712563Y-5286936D02*
X4703039Y-5267889D01*
X4703039Y-5267889D02*
X4693515Y-5229793D01*
X4693515Y-5229793D02*
X4693515Y-5182174D01*
X4693515Y-5182174D02*
X4703039Y-5144079D01*
X4703039Y-5144079D02*
X4712563Y-5125031D01*
X4712563Y-5125031D02*
X4722087Y-5115508D01*
X4722087Y-5115508D02*
X4741134Y-5105984D01*
X4893515Y-5286936D02*
X4903039Y-5296460D01*
X4903039Y-5296460D02*
X4893515Y-5305984D01*
X4893515Y-5305984D02*
X4883991Y-5296460D01*
X4883991Y-5296460D02*
X4893515Y-5286936D01*
X4893515Y-5286936D02*
X4893515Y-5305984D01*
X5026848Y-5105984D02*
X5045896Y-5105984D01*
X5045896Y-5105984D02*
X5064944Y-5115508D01*
X5064944Y-5115508D02*
X5074468Y-5125031D01*
X5074468Y-5125031D02*
X5083991Y-5144079D01*
X5083991Y-5144079D02*
X5093515Y-5182174D01*
X5093515Y-5182174D02*
X5093515Y-5229793D01*
X5093515Y-5229793D02*
X5083991Y-5267889D01*
X5083991Y-5267889D02*
X5074468Y-5286936D01*
X5074468Y-5286936D02*
X5064944Y-5296460D01*
X5064944Y-5296460D02*
X5045896Y-5305984D01*
X5045896Y-5305984D02*
X5026848Y-5305984D01*
X5026848Y-5305984D02*
X5007801Y-5296460D01*
X5007801Y-5296460D02*
X4998277Y-5286936D01*
X4998277Y-5286936D02*
X4988753Y-5267889D01*
X4988753Y-5267889D02*
X4979229Y-5229793D01*
X4979229Y-5229793D02*
X4979229Y-5182174D01*
X4979229Y-5182174D02*
X4988753Y-5144079D01*
X4988753Y-5144079D02*
X4998277Y-5125031D01*
X4998277Y-5125031D02*
X5007801Y-5115508D01*
X5007801Y-5115508D02*
X5026848Y-5105984D01*
X5283991Y-5305984D02*
X5169706Y-5305984D01*
X5226848Y-5305984D02*
X5226848Y-5105984D01*
X5226848Y-5105984D02*
X5207801Y-5134555D01*
X5207801Y-5134555D02*
X5188753Y-5153603D01*
X5188753Y-5153603D02*
X5169706Y-5163127D01*
X5474468Y-5305984D02*
X5360182Y-5305984D01*
X5417325Y-5305984D02*
X5417325Y-5105984D01*
X5417325Y-5105984D02*
X5398277Y-5134555D01*
X5398277Y-5134555D02*
X5379229Y-5153603D01*
X5379229Y-5153603D02*
X5360182Y-5163127D01*
X5588753Y-5191698D02*
X5569706Y-5182174D01*
X5569706Y-5182174D02*
X5560182Y-5172650D01*
X5560182Y-5172650D02*
X5550658Y-5153603D01*
X5550658Y-5153603D02*
X5550658Y-5144079D01*
X5550658Y-5144079D02*
X5560182Y-5125031D01*
X5560182Y-5125031D02*
X5569706Y-5115508D01*
X5569706Y-5115508D02*
X5588753Y-5105984D01*
X5588753Y-5105984D02*
X5626848Y-5105984D01*
X5626848Y-5105984D02*
X5645896Y-5115508D01*
X5645896Y-5115508D02*
X5655420Y-5125031D01*
X5655420Y-5125031D02*
X5664944Y-5144079D01*
X5664944Y-5144079D02*
X5664944Y-5153603D01*
X5664944Y-5153603D02*
X5655420Y-5172650D01*
X5655420Y-5172650D02*
X5645896Y-5182174D01*
X5645896Y-5182174D02*
X5626848Y-5191698D01*
X5626848Y-5191698D02*
X5588753Y-5191698D01*
X5588753Y-5191698D02*
X5569706Y-5201222D01*
X5569706Y-5201222D02*
X5560182Y-5210746D01*
X5560182Y-5210746D02*
X5550658Y-5229793D01*
X5550658Y-5229793D02*
X5550658Y-5267889D01*
X5550658Y-5267889D02*
X5560182Y-5286936D01*
X5560182Y-5286936D02*
X5569706Y-5296460D01*
X5569706Y-5296460D02*
X5588753Y-5305984D01*
X5588753Y-5305984D02*
X5626848Y-5305984D01*
X5626848Y-5305984D02*
X5645896Y-5296460D01*
X5645896Y-5296460D02*
X5655420Y-5286936D01*
X5655420Y-5286936D02*
X5664944Y-5267889D01*
X5664944Y-5267889D02*
X5664944Y-5229793D01*
X5664944Y-5229793D02*
X5655420Y-5210746D01*
X5655420Y-5210746D02*
X5645896Y-5201222D01*
X5645896Y-5201222D02*
X5626848Y-5191698D01*
X5741134Y-5105984D02*
X5741134Y-5144079D01*
X5817325Y-5105984D02*
X5817325Y-5144079D01*
X6112563Y-5382174D02*
X6103039Y-5372650D01*
X6103039Y-5372650D02*
X6083991Y-5344079D01*
X6083991Y-5344079D02*
X6074468Y-5325031D01*
X6074468Y-5325031D02*
X6064944Y-5296460D01*
X6064944Y-5296460D02*
X6055420Y-5248841D01*
X6055420Y-5248841D02*
X6055420Y-5210746D01*
X6055420Y-5210746D02*
X6064944Y-5163127D01*
X6064944Y-5163127D02*
X6074468Y-5134555D01*
X6074468Y-5134555D02*
X6083991Y-5115508D01*
X6083991Y-5115508D02*
X6103039Y-5086936D01*
X6103039Y-5086936D02*
X6112563Y-5077412D01*
X6179229Y-5125031D02*
X6188753Y-5115508D01*
X6188753Y-5115508D02*
X6207801Y-5105984D01*
X6207801Y-5105984D02*
X6255420Y-5105984D01*
X6255420Y-5105984D02*
X6274468Y-5115508D01*
X6274468Y-5115508D02*
X6283991Y-5125031D01*
X6283991Y-5125031D02*
X6293515Y-5144079D01*
X6293515Y-5144079D02*
X6293515Y-5163127D01*
X6293515Y-5163127D02*
X6283991Y-5191698D01*
X6283991Y-5191698D02*
X6169706Y-5305984D01*
X6169706Y-5305984D02*
X6293515Y-5305984D01*
X6360182Y-5105984D02*
X6493515Y-5105984D01*
X6493515Y-5105984D02*
X6407801Y-5305984D01*
X6722087Y-5305984D02*
X6722087Y-5105984D01*
X6807801Y-5305984D02*
X6807801Y-5201222D01*
X6807801Y-5201222D02*
X6798277Y-5182174D01*
X6798277Y-5182174D02*
X6779230Y-5172650D01*
X6779230Y-5172650D02*
X6750658Y-5172650D01*
X6750658Y-5172650D02*
X6731610Y-5182174D01*
X6731610Y-5182174D02*
X6722087Y-5191698D01*
X6931610Y-5305984D02*
X6912563Y-5296460D01*
X6912563Y-5296460D02*
X6903039Y-5286936D01*
X6903039Y-5286936D02*
X6893515Y-5267889D01*
X6893515Y-5267889D02*
X6893515Y-5210746D01*
X6893515Y-5210746D02*
X6903039Y-5191698D01*
X6903039Y-5191698D02*
X6912563Y-5182174D01*
X6912563Y-5182174D02*
X6931610Y-5172650D01*
X6931610Y-5172650D02*
X6960182Y-5172650D01*
X6960182Y-5172650D02*
X6979230Y-5182174D01*
X6979230Y-5182174D02*
X6988753Y-5191698D01*
X6988753Y-5191698D02*
X6998277Y-5210746D01*
X6998277Y-5210746D02*
X6998277Y-5267889D01*
X6998277Y-5267889D02*
X6988753Y-5286936D01*
X6988753Y-5286936D02*
X6979230Y-5296460D01*
X6979230Y-5296460D02*
X6960182Y-5305984D01*
X6960182Y-5305984D02*
X6931610Y-5305984D01*
X7112563Y-5305984D02*
X7093515Y-5296460D01*
X7093515Y-5296460D02*
X7083991Y-5277412D01*
X7083991Y-5277412D02*
X7083991Y-5105984D01*
X7264944Y-5296460D02*
X7245896Y-5305984D01*
X7245896Y-5305984D02*
X7207801Y-5305984D01*
X7207801Y-5305984D02*
X7188753Y-5296460D01*
X7188753Y-5296460D02*
X7179230Y-5277412D01*
X7179230Y-5277412D02*
X7179230Y-5201222D01*
X7179230Y-5201222D02*
X7188753Y-5182174D01*
X7188753Y-5182174D02*
X7207801Y-5172650D01*
X7207801Y-5172650D02*
X7245896Y-5172650D01*
X7245896Y-5172650D02*
X7264944Y-5182174D01*
X7264944Y-5182174D02*
X7274468Y-5201222D01*
X7274468Y-5201222D02*
X7274468Y-5220270D01*
X7274468Y-5220270D02*
X7179230Y-5239317D01*
X7350658Y-5296460D02*
X7369706Y-5305984D01*
X7369706Y-5305984D02*
X7407801Y-5305984D01*
X7407801Y-5305984D02*
X7426849Y-5296460D01*
X7426849Y-5296460D02*
X7436372Y-5277412D01*
X7436372Y-5277412D02*
X7436372Y-5267889D01*
X7436372Y-5267889D02*
X7426849Y-5248841D01*
X7426849Y-5248841D02*
X7407801Y-5239317D01*
X7407801Y-5239317D02*
X7379230Y-5239317D01*
X7379230Y-5239317D02*
X7360182Y-5229793D01*
X7360182Y-5229793D02*
X7350658Y-5210746D01*
X7350658Y-5210746D02*
X7350658Y-5201222D01*
X7350658Y-5201222D02*
X7360182Y-5182174D01*
X7360182Y-5182174D02*
X7379230Y-5172650D01*
X7379230Y-5172650D02*
X7407801Y-5172650D01*
X7407801Y-5172650D02*
X7426849Y-5182174D01*
X7503039Y-5382174D02*
X7512563Y-5372650D01*
X7512563Y-5372650D02*
X7531611Y-5344079D01*
X7531611Y-5344079D02*
X7541134Y-5325031D01*
X7541134Y-5325031D02*
X7550658Y-5296460D01*
X7550658Y-5296460D02*
X7560182Y-5248841D01*
X7560182Y-5248841D02*
X7560182Y-5210746D01*
X7560182Y-5210746D02*
X7550658Y-5163127D01*
X7550658Y-5163127D02*
X7541134Y-5134555D01*
X7541134Y-5134555D02*
X7531611Y-5115508D01*
X7531611Y-5115508D02*
X7512563Y-5086936D01*
X7512563Y-5086936D02*
X7503039Y-5077412D01*
D12*
X2537500Y-5478500D02*
G75*
G02*
X2437500Y-5478500I-50000J0D01*
G01*
X2437500Y-5478500D02*
G75*
G02*
X2537500Y-5478500I50000J0D01*
G01*
D11*
X2903039Y-5569984D02*
X2788753Y-5569984D01*
X2845896Y-5569984D02*
X2845896Y-5369984D01*
X2845896Y-5369984D02*
X2826848Y-5398555D01*
X2826848Y-5398555D02*
X2807801Y-5417603D01*
X2807801Y-5417603D02*
X2788753Y-5427127D01*
X2988753Y-5550936D02*
X2998277Y-5560460D01*
X2998277Y-5560460D02*
X2988753Y-5569984D01*
X2988753Y-5569984D02*
X2979229Y-5560460D01*
X2979229Y-5560460D02*
X2988753Y-5550936D01*
X2988753Y-5550936D02*
X2988753Y-5569984D01*
X3122086Y-5369984D02*
X3141134Y-5369984D01*
X3141134Y-5369984D02*
X3160182Y-5379508D01*
X3160182Y-5379508D02*
X3169705Y-5389031D01*
X3169705Y-5389031D02*
X3179229Y-5408079D01*
X3179229Y-5408079D02*
X3188753Y-5446174D01*
X3188753Y-5446174D02*
X3188753Y-5493793D01*
X3188753Y-5493793D02*
X3179229Y-5531889D01*
X3179229Y-5531889D02*
X3169705Y-5550936D01*
X3169705Y-5550936D02*
X3160182Y-5560460D01*
X3160182Y-5560460D02*
X3141134Y-5569984D01*
X3141134Y-5569984D02*
X3122086Y-5569984D01*
X3122086Y-5569984D02*
X3103039Y-5560460D01*
X3103039Y-5560460D02*
X3093515Y-5550936D01*
X3093515Y-5550936D02*
X3083991Y-5531889D01*
X3083991Y-5531889D02*
X3074467Y-5493793D01*
X3074467Y-5493793D02*
X3074467Y-5446174D01*
X3074467Y-5446174D02*
X3083991Y-5408079D01*
X3083991Y-5408079D02*
X3093515Y-5389031D01*
X3093515Y-5389031D02*
X3103039Y-5379508D01*
X3103039Y-5379508D02*
X3122086Y-5369984D01*
X3312562Y-5369984D02*
X3331610Y-5369984D01*
X3331610Y-5369984D02*
X3350658Y-5379508D01*
X3350658Y-5379508D02*
X3360182Y-5389031D01*
X3360182Y-5389031D02*
X3369705Y-5408079D01*
X3369705Y-5408079D02*
X3379229Y-5446174D01*
X3379229Y-5446174D02*
X3379229Y-5493793D01*
X3379229Y-5493793D02*
X3369705Y-5531889D01*
X3369705Y-5531889D02*
X3360182Y-5550936D01*
X3360182Y-5550936D02*
X3350658Y-5560460D01*
X3350658Y-5560460D02*
X3331610Y-5569984D01*
X3331610Y-5569984D02*
X3312562Y-5569984D01*
X3312562Y-5569984D02*
X3293515Y-5560460D01*
X3293515Y-5560460D02*
X3283991Y-5550936D01*
X3283991Y-5550936D02*
X3274467Y-5531889D01*
X3274467Y-5531889D02*
X3264943Y-5493793D01*
X3264943Y-5493793D02*
X3264943Y-5446174D01*
X3264943Y-5446174D02*
X3274467Y-5408079D01*
X3274467Y-5408079D02*
X3283991Y-5389031D01*
X3283991Y-5389031D02*
X3293515Y-5379508D01*
X3293515Y-5379508D02*
X3312562Y-5369984D01*
X3503039Y-5369984D02*
X3522086Y-5369984D01*
X3522086Y-5369984D02*
X3541134Y-5379508D01*
X3541134Y-5379508D02*
X3550658Y-5389031D01*
X3550658Y-5389031D02*
X3560182Y-5408079D01*
X3560182Y-5408079D02*
X3569705Y-5446174D01*
X3569705Y-5446174D02*
X3569705Y-5493793D01*
X3569705Y-5493793D02*
X3560182Y-5531889D01*
X3560182Y-5531889D02*
X3550658Y-5550936D01*
X3550658Y-5550936D02*
X3541134Y-5560460D01*
X3541134Y-5560460D02*
X3522086Y-5569984D01*
X3522086Y-5569984D02*
X3503039Y-5569984D01*
X3503039Y-5569984D02*
X3483991Y-5560460D01*
X3483991Y-5560460D02*
X3474467Y-5550936D01*
X3474467Y-5550936D02*
X3464943Y-5531889D01*
X3464943Y-5531889D02*
X3455420Y-5493793D01*
X3455420Y-5493793D02*
X3455420Y-5446174D01*
X3455420Y-5446174D02*
X3464943Y-5408079D01*
X3464943Y-5408079D02*
X3474467Y-5389031D01*
X3474467Y-5389031D02*
X3483991Y-5379508D01*
X3483991Y-5379508D02*
X3503039Y-5369984D01*
X3655420Y-5569984D02*
X3655420Y-5436650D01*
X3655420Y-5455698D02*
X3664943Y-5446174D01*
X3664943Y-5446174D02*
X3683991Y-5436650D01*
X3683991Y-5436650D02*
X3712563Y-5436650D01*
X3712563Y-5436650D02*
X3731610Y-5446174D01*
X3731610Y-5446174D02*
X3741134Y-5465222D01*
X3741134Y-5465222D02*
X3741134Y-5569984D01*
X3741134Y-5465222D02*
X3750658Y-5446174D01*
X3750658Y-5446174D02*
X3769705Y-5436650D01*
X3769705Y-5436650D02*
X3798277Y-5436650D01*
X3798277Y-5436650D02*
X3817324Y-5446174D01*
X3817324Y-5446174D02*
X3826848Y-5465222D01*
X3826848Y-5465222D02*
X3826848Y-5569984D01*
X3922086Y-5569984D02*
X3922086Y-5436650D01*
X3922086Y-5455698D02*
X3931610Y-5446174D01*
X3931610Y-5446174D02*
X3950658Y-5436650D01*
X3950658Y-5436650D02*
X3979229Y-5436650D01*
X3979229Y-5436650D02*
X3998277Y-5446174D01*
X3998277Y-5446174D02*
X4007801Y-5465222D01*
X4007801Y-5465222D02*
X4007801Y-5569984D01*
X4007801Y-5465222D02*
X4017324Y-5446174D01*
X4017324Y-5446174D02*
X4036372Y-5436650D01*
X4036372Y-5436650D02*
X4064943Y-5436650D01*
X4064943Y-5436650D02*
X4083991Y-5446174D01*
X4083991Y-5446174D02*
X4093515Y-5465222D01*
X4093515Y-5465222D02*
X4093515Y-5569984D01*
X4483991Y-5360460D02*
X4312563Y-5617603D01*
X4741134Y-5369984D02*
X4760182Y-5369984D01*
X4760182Y-5369984D02*
X4779229Y-5379508D01*
X4779229Y-5379508D02*
X4788753Y-5389031D01*
X4788753Y-5389031D02*
X4798277Y-5408079D01*
X4798277Y-5408079D02*
X4807801Y-5446174D01*
X4807801Y-5446174D02*
X4807801Y-5493793D01*
X4807801Y-5493793D02*
X4798277Y-5531889D01*
X4798277Y-5531889D02*
X4788753Y-5550936D01*
X4788753Y-5550936D02*
X4779229Y-5560460D01*
X4779229Y-5560460D02*
X4760182Y-5569984D01*
X4760182Y-5569984D02*
X4741134Y-5569984D01*
X4741134Y-5569984D02*
X4722087Y-5560460D01*
X4722087Y-5560460D02*
X4712563Y-5550936D01*
X4712563Y-5550936D02*
X4703039Y-5531889D01*
X4703039Y-5531889D02*
X4693515Y-5493793D01*
X4693515Y-5493793D02*
X4693515Y-5446174D01*
X4693515Y-5446174D02*
X4703039Y-5408079D01*
X4703039Y-5408079D02*
X4712563Y-5389031D01*
X4712563Y-5389031D02*
X4722087Y-5379508D01*
X4722087Y-5379508D02*
X4741134Y-5369984D01*
X4893515Y-5550936D02*
X4903039Y-5560460D01*
X4903039Y-5560460D02*
X4893515Y-5569984D01*
X4893515Y-5569984D02*
X4883991Y-5560460D01*
X4883991Y-5560460D02*
X4893515Y-5550936D01*
X4893515Y-5550936D02*
X4893515Y-5569984D01*
X5026848Y-5369984D02*
X5045896Y-5369984D01*
X5045896Y-5369984D02*
X5064944Y-5379508D01*
X5064944Y-5379508D02*
X5074468Y-5389031D01*
X5074468Y-5389031D02*
X5083991Y-5408079D01*
X5083991Y-5408079D02*
X5093515Y-5446174D01*
X5093515Y-5446174D02*
X5093515Y-5493793D01*
X5093515Y-5493793D02*
X5083991Y-5531889D01*
X5083991Y-5531889D02*
X5074468Y-5550936D01*
X5074468Y-5550936D02*
X5064944Y-5560460D01*
X5064944Y-5560460D02*
X5045896Y-5569984D01*
X5045896Y-5569984D02*
X5026848Y-5569984D01*
X5026848Y-5569984D02*
X5007801Y-5560460D01*
X5007801Y-5560460D02*
X4998277Y-5550936D01*
X4998277Y-5550936D02*
X4988753Y-5531889D01*
X4988753Y-5531889D02*
X4979229Y-5493793D01*
X4979229Y-5493793D02*
X4979229Y-5446174D01*
X4979229Y-5446174D02*
X4988753Y-5408079D01*
X4988753Y-5408079D02*
X4998277Y-5389031D01*
X4998277Y-5389031D02*
X5007801Y-5379508D01*
X5007801Y-5379508D02*
X5026848Y-5369984D01*
X5160182Y-5369984D02*
X5283991Y-5369984D01*
X5283991Y-5369984D02*
X5217325Y-5446174D01*
X5217325Y-5446174D02*
X5245896Y-5446174D01*
X5245896Y-5446174D02*
X5264944Y-5455698D01*
X5264944Y-5455698D02*
X5274468Y-5465222D01*
X5274468Y-5465222D02*
X5283991Y-5484270D01*
X5283991Y-5484270D02*
X5283991Y-5531889D01*
X5283991Y-5531889D02*
X5274468Y-5550936D01*
X5274468Y-5550936D02*
X5264944Y-5560460D01*
X5264944Y-5560460D02*
X5245896Y-5569984D01*
X5245896Y-5569984D02*
X5188753Y-5569984D01*
X5188753Y-5569984D02*
X5169706Y-5560460D01*
X5169706Y-5560460D02*
X5160182Y-5550936D01*
X5379229Y-5569984D02*
X5417325Y-5569984D01*
X5417325Y-5569984D02*
X5436372Y-5560460D01*
X5436372Y-5560460D02*
X5445896Y-5550936D01*
X5445896Y-5550936D02*
X5464944Y-5522365D01*
X5464944Y-5522365D02*
X5474468Y-5484270D01*
X5474468Y-5484270D02*
X5474468Y-5408079D01*
X5474468Y-5408079D02*
X5464944Y-5389031D01*
X5464944Y-5389031D02*
X5455420Y-5379508D01*
X5455420Y-5379508D02*
X5436372Y-5369984D01*
X5436372Y-5369984D02*
X5398277Y-5369984D01*
X5398277Y-5369984D02*
X5379229Y-5379508D01*
X5379229Y-5379508D02*
X5369706Y-5389031D01*
X5369706Y-5389031D02*
X5360182Y-5408079D01*
X5360182Y-5408079D02*
X5360182Y-5455698D01*
X5360182Y-5455698D02*
X5369706Y-5474746D01*
X5369706Y-5474746D02*
X5379229Y-5484270D01*
X5379229Y-5484270D02*
X5398277Y-5493793D01*
X5398277Y-5493793D02*
X5436372Y-5493793D01*
X5436372Y-5493793D02*
X5455420Y-5484270D01*
X5455420Y-5484270D02*
X5464944Y-5474746D01*
X5464944Y-5474746D02*
X5474468Y-5455698D01*
X5645896Y-5436650D02*
X5645896Y-5569984D01*
X5598277Y-5360460D02*
X5550658Y-5503317D01*
X5550658Y-5503317D02*
X5674467Y-5503317D01*
X5741134Y-5369984D02*
X5741134Y-5408079D01*
X5817325Y-5369984D02*
X5817325Y-5408079D01*
X6112563Y-5646174D02*
X6103039Y-5636650D01*
X6103039Y-5636650D02*
X6083991Y-5608079D01*
X6083991Y-5608079D02*
X6074468Y-5589031D01*
X6074468Y-5589031D02*
X6064944Y-5560460D01*
X6064944Y-5560460D02*
X6055420Y-5512841D01*
X6055420Y-5512841D02*
X6055420Y-5474746D01*
X6055420Y-5474746D02*
X6064944Y-5427127D01*
X6064944Y-5427127D02*
X6074468Y-5398555D01*
X6074468Y-5398555D02*
X6083991Y-5379508D01*
X6083991Y-5379508D02*
X6103039Y-5350936D01*
X6103039Y-5350936D02*
X6112563Y-5341412D01*
X6179229Y-5389031D02*
X6188753Y-5379508D01*
X6188753Y-5379508D02*
X6207801Y-5369984D01*
X6207801Y-5369984D02*
X6255420Y-5369984D01*
X6255420Y-5369984D02*
X6274468Y-5379508D01*
X6274468Y-5379508D02*
X6283991Y-5389031D01*
X6283991Y-5389031D02*
X6293515Y-5408079D01*
X6293515Y-5408079D02*
X6293515Y-5427127D01*
X6293515Y-5427127D02*
X6283991Y-5455698D01*
X6283991Y-5455698D02*
X6169706Y-5569984D01*
X6169706Y-5569984D02*
X6293515Y-5569984D01*
X6531610Y-5569984D02*
X6531610Y-5369984D01*
X6617325Y-5569984D02*
X6617325Y-5465222D01*
X6617325Y-5465222D02*
X6607801Y-5446174D01*
X6607801Y-5446174D02*
X6588753Y-5436650D01*
X6588753Y-5436650D02*
X6560182Y-5436650D01*
X6560182Y-5436650D02*
X6541134Y-5446174D01*
X6541134Y-5446174D02*
X6531610Y-5455698D01*
X6741134Y-5569984D02*
X6722087Y-5560460D01*
X6722087Y-5560460D02*
X6712563Y-5550936D01*
X6712563Y-5550936D02*
X6703039Y-5531889D01*
X6703039Y-5531889D02*
X6703039Y-5474746D01*
X6703039Y-5474746D02*
X6712563Y-5455698D01*
X6712563Y-5455698D02*
X6722087Y-5446174D01*
X6722087Y-5446174D02*
X6741134Y-5436650D01*
X6741134Y-5436650D02*
X6769706Y-5436650D01*
X6769706Y-5436650D02*
X6788753Y-5446174D01*
X6788753Y-5446174D02*
X6798277Y-5455698D01*
X6798277Y-5455698D02*
X6807801Y-5474746D01*
X6807801Y-5474746D02*
X6807801Y-5531889D01*
X6807801Y-5531889D02*
X6798277Y-5550936D01*
X6798277Y-5550936D02*
X6788753Y-5560460D01*
X6788753Y-5560460D02*
X6769706Y-5569984D01*
X6769706Y-5569984D02*
X6741134Y-5569984D01*
X6922087Y-5569984D02*
X6903039Y-5560460D01*
X6903039Y-5560460D02*
X6893515Y-5541412D01*
X6893515Y-5541412D02*
X6893515Y-5369984D01*
X7074468Y-5560460D02*
X7055420Y-5569984D01*
X7055420Y-5569984D02*
X7017325Y-5569984D01*
X7017325Y-5569984D02*
X6998277Y-5560460D01*
X6998277Y-5560460D02*
X6988753Y-5541412D01*
X6988753Y-5541412D02*
X6988753Y-5465222D01*
X6988753Y-5465222D02*
X6998277Y-5446174D01*
X6998277Y-5446174D02*
X7017325Y-5436650D01*
X7017325Y-5436650D02*
X7055420Y-5436650D01*
X7055420Y-5436650D02*
X7074468Y-5446174D01*
X7074468Y-5446174D02*
X7083991Y-5465222D01*
X7083991Y-5465222D02*
X7083991Y-5484270D01*
X7083991Y-5484270D02*
X6988753Y-5503317D01*
X7160182Y-5560460D02*
X7179230Y-5569984D01*
X7179230Y-5569984D02*
X7217325Y-5569984D01*
X7217325Y-5569984D02*
X7236372Y-5560460D01*
X7236372Y-5560460D02*
X7245896Y-5541412D01*
X7245896Y-5541412D02*
X7245896Y-5531889D01*
X7245896Y-5531889D02*
X7236372Y-5512841D01*
X7236372Y-5512841D02*
X7217325Y-5503317D01*
X7217325Y-5503317D02*
X7188753Y-5503317D01*
X7188753Y-5503317D02*
X7169706Y-5493793D01*
X7169706Y-5493793D02*
X7160182Y-5474746D01*
X7160182Y-5474746D02*
X7160182Y-5465222D01*
X7160182Y-5465222D02*
X7169706Y-5446174D01*
X7169706Y-5446174D02*
X7188753Y-5436650D01*
X7188753Y-5436650D02*
X7217325Y-5436650D01*
X7217325Y-5436650D02*
X7236372Y-5446174D01*
X7483992Y-5493793D02*
X7636373Y-5493793D01*
X7560182Y-5569984D02*
X7560182Y-5417603D01*
X7969706Y-5436650D02*
X7969706Y-5569984D01*
X7922087Y-5360460D02*
X7874468Y-5503317D01*
X7874468Y-5503317D02*
X7998277Y-5503317D01*
X8217325Y-5560460D02*
X8236373Y-5569984D01*
X8236373Y-5569984D02*
X8274468Y-5569984D01*
X8274468Y-5569984D02*
X8293515Y-5560460D01*
X8293515Y-5560460D02*
X8303039Y-5541412D01*
X8303039Y-5541412D02*
X8303039Y-5531889D01*
X8303039Y-5531889D02*
X8293515Y-5512841D01*
X8293515Y-5512841D02*
X8274468Y-5503317D01*
X8274468Y-5503317D02*
X8245896Y-5503317D01*
X8245896Y-5503317D02*
X8226849Y-5493793D01*
X8226849Y-5493793D02*
X8217325Y-5474746D01*
X8217325Y-5474746D02*
X8217325Y-5465222D01*
X8217325Y-5465222D02*
X8226849Y-5446174D01*
X8226849Y-5446174D02*
X8245896Y-5436650D01*
X8245896Y-5436650D02*
X8274468Y-5436650D01*
X8274468Y-5436650D02*
X8293515Y-5446174D01*
X8417325Y-5569984D02*
X8398277Y-5560460D01*
X8398277Y-5560460D02*
X8388754Y-5541412D01*
X8388754Y-5541412D02*
X8388754Y-5369984D01*
X8522087Y-5569984D02*
X8503039Y-5560460D01*
X8503039Y-5560460D02*
X8493516Y-5550936D01*
X8493516Y-5550936D02*
X8483992Y-5531889D01*
X8483992Y-5531889D02*
X8483992Y-5474746D01*
X8483992Y-5474746D02*
X8493516Y-5455698D01*
X8493516Y-5455698D02*
X8503039Y-5446174D01*
X8503039Y-5446174D02*
X8522087Y-5436650D01*
X8522087Y-5436650D02*
X8550658Y-5436650D01*
X8550658Y-5436650D02*
X8569706Y-5446174D01*
X8569706Y-5446174D02*
X8579230Y-5455698D01*
X8579230Y-5455698D02*
X8588754Y-5474746D01*
X8588754Y-5474746D02*
X8588754Y-5531889D01*
X8588754Y-5531889D02*
X8579230Y-5550936D01*
X8579230Y-5550936D02*
X8569706Y-5560460D01*
X8569706Y-5560460D02*
X8550658Y-5569984D01*
X8550658Y-5569984D02*
X8522087Y-5569984D01*
X8645897Y-5436650D02*
X8722087Y-5436650D01*
X8674468Y-5369984D02*
X8674468Y-5541412D01*
X8674468Y-5541412D02*
X8683992Y-5560460D01*
X8683992Y-5560460D02*
X8703039Y-5569984D01*
X8703039Y-5569984D02*
X8722087Y-5569984D01*
X8779230Y-5560460D02*
X8798277Y-5569984D01*
X8798277Y-5569984D02*
X8836373Y-5569984D01*
X8836373Y-5569984D02*
X8855420Y-5560460D01*
X8855420Y-5560460D02*
X8864944Y-5541412D01*
X8864944Y-5541412D02*
X8864944Y-5531889D01*
X8864944Y-5531889D02*
X8855420Y-5512841D01*
X8855420Y-5512841D02*
X8836373Y-5503317D01*
X8836373Y-5503317D02*
X8807801Y-5503317D01*
X8807801Y-5503317D02*
X8788754Y-5493793D01*
X8788754Y-5493793D02*
X8779230Y-5474746D01*
X8779230Y-5474746D02*
X8779230Y-5465222D01*
X8779230Y-5465222D02*
X8788754Y-5446174D01*
X8788754Y-5446174D02*
X8807801Y-5436650D01*
X8807801Y-5436650D02*
X8836373Y-5436650D01*
X8836373Y-5436650D02*
X8855420Y-5446174D01*
X8931611Y-5646174D02*
X8941135Y-5636650D01*
X8941135Y-5636650D02*
X8960182Y-5608079D01*
X8960182Y-5608079D02*
X8969706Y-5589031D01*
X8969706Y-5589031D02*
X8979230Y-5560460D01*
X8979230Y-5560460D02*
X8988754Y-5512841D01*
X8988754Y-5512841D02*
X8988754Y-5474746D01*
X8988754Y-5474746D02*
X8979230Y-5427127D01*
X8979230Y-5427127D02*
X8969706Y-5398555D01*
X8969706Y-5398555D02*
X8960182Y-5379508D01*
X8960182Y-5379508D02*
X8941135Y-5350936D01*
X8941135Y-5350936D02*
X8931611Y-5341412D01*
M02*
